<svg xmlns="http://www.w3.org/2000/svg" fill="none" viewBox="0 0 24 24" height="24" width="24" id="User-Login--Streamline-Cyber.svg"><desc>User Login Streamline Icon: https://streamlinehq.com</desc><path fill="#ffffff" d="M10.5 2 7.5 0.5 4.5 2v4l3 1.5 3 -1.5V2Z" stroke-width="1"></path><path fill="#ffffff" d="m13 9.5 -5.5 -2 -5.5 2 -1.5 7 3 -2.5v9.5l4 -6 4 6V14l3 2.5 -1.5 -7Z" stroke-width="1"></path><path fill="#187fe2" d="M10.5 3.5h-4L4.5 2l3 -1.5 3 1.5v1.5Z" stroke-width="1"></path><path fill="#187fe2" d="M11.5 15.5h-8v2h8v-2Z" stroke-width="1"></path><path stroke="#092f63" stroke-linecap="round" stroke-linejoin="round" d="M14.5 5.5h9" stroke-width="1"></path><path stroke="#092f63" stroke-linecap="round" stroke-linejoin="round" d="m19.5 1.5 4 4 -4 4" stroke-width="1"></path><path stroke="#092f63" stroke-linecap="round" stroke-linejoin="round" d="m10.5 6 -3 1.5 -3 -1.5V2l3 -1.5 3 1.5v4Z" stroke-width="1"></path><path stroke="#092f63" stroke-linecap="round" stroke-linejoin="round" d="m11.5 14 3 2.5 -1.5 -7 -5.5 -2 -5.5 2 -1.5 7 3 -2.5" stroke-width="1"></path><path stroke="#092f63" stroke-linecap="round" stroke-linejoin="round" d="M11.5 12.5v11l-4 -6 -4 6v-11" stroke-width="1"></path><path stroke="#092f63" stroke-linecap="round" stroke-linejoin="round" d="M10.5 3.5h-4L4.5 2l3 -1.5 3 1.5v1.5Z" stroke-width="1"></path><path stroke="#092f63" stroke-linecap="round" stroke-linejoin="round" d="M3.5 15.5h8" stroke-width="1"></path></svg>