<svg xmlns="http://www.w3.org/2000/svg" fill="none" viewBox="0 0 400 400" height="400" width="400" id="Hodl--Streamline-Web-3.0.svg"><desc>HODL Streamline Illustration: https://streamlinehq.com</desc><g id="HODL--cryptocurrency-crypto-web 3.0-metaverse-bitcoin-ethereum"><g id="Group"><path id="Vector" fill="#fdfe1f" d="M31.524 60.51c-2.21 7.428 3.04 17.356 7.22 23.93 0.852 1.346 1.222 2.952 2.166 4.234 17.922 24.352 16.6 19.32 25.444 30.094 13.54 16.48 88.11 80.056 114.54 96.508 10.07 6.27 19.106 14.664 29.106 21.054a84.618 84.618 0 0 1 11.154 7.658c4.424 3.956 23.94 14.852 26.822 16.732a90.158 90.158 0 0 0 8.112 5.098c27.784 15.782 29.312 17.14 30.266 17.668a161.19 161.19 0 0 1 15.426 7.566c7.276 4.248 8.236 3.634 30.564 14.44 2.024 0.98 -7.92 -2.832 22.4 6.968 4.71 1.522 3.364 1.01 13.6 1.892a21.578 21.578 0 0 0 12 -3.434c10.362 -7.71 2.22 -23.882 -5.344 -34.284 -0.69 -0.948 -1.496 -1.58 -2.134 -2.564 -9.336 -14.4 -6.724 -10.032 -13.466 -17.346 -5.474 -5.94 -3.858 -5.538 -11.884 -12.914 -10.88 -10 -13.878 -14.658 -18.49 -18.524 -9.634 -8.076 -18.624 -16.918 -28.56 -24.622 -3.908 -3.03 -7.038 -6.884 -10.91 -9.96 -96.69 -76.764 -141.66 -96.872 -156.198 -106.828 -7.158 -4.9 -38.5 -18.578 -42.436 -20.8 -4.126 -2.32 -6.052 -1.238 -19.11 -6.8A73.32 73.32 0 0 0 49.6 50.698c-1.1 -0.098 -8.708 1.1 -8.972 1.164a12.84 12.84 0 0 0 -9.104 8.648Zm12.68 0.42c32.74 -4.504 124.324 54.07 151.662 72.514 5.064 3.414 9.738 7.538 15.378 9.878 0.554 0.184 1.064 0.48 1.5 0.87 1.4 1.45 -2.4 -0.734 7.232 5.6 12.144 8 12.77 9.546 18.2 12.946a17.36 17.36 0 0 1 2.822 1.7c13.54 12.26 2.028 0.816 40.338 32.488 41.47 34.286 29.138 24.544 33.6 29.122 1.25 1.282 2.98 1.98 4.26 3.23 10.558 10.318 24.582 23.988 30.044 30.102 6.988 7.826 32.256 36.678 24.534 43.914 -1.308 1.228 -1.318 1.67 -3.448 1.546 -7.058 -0.414 -8.4 -0.46 -9.8 -0.678 -4.422 -0.694 -6.128 -2.678 -7.988 -2.866 -0.962 -0.098 -0.262 0.374 -2 -0.256 -7.482 -2.716 -5.98 -0.98 -6.148 -1.414 -2.342 0.086 -2.69 -0.368 -26.332 -10.916a12.91 12.91 0 0 1 -2.024 -0.672c-5.352 -3.644 -23.238 -10.776 -25.372 -12.85 -2.078 -2.018 -30.05 -16.826 -45.682 -27.67a61.84 61.84 0 0 0 -11.4 -7.12c-0.078 -0.542 -0.652 -0.842 -1.15 -1.07 -7.658 -3.482 -13.626 -9.872 -21 -13.918 -6.288 -3.45 -3.426 -1.6 -8.15 -5.27 -3.14 -2.446 -6.536 -4.136 -21.936 -15.482 -12.786 -9.42 -14.514 -12.616 -18.036 -13.636 -6.264 -6.718 -18.19 -12 -42.696 -34.756 -4.436 -4.116 0.272 3.128 -28.644 -25.612a24.86 24.86 0 0 0 -3.054 -2.612c-8.874 -6.226 -11.93 -11.842 -15.2 -15.212a83.456 83.456 0 0 1 -8.634 -8.898c-3.308 -3.882 -7.174 -7.48 -10.106 -11.654 -1.126 -1.6 -1.77 -3.502 -2.86 -5.134 -2.464 -3.69 -3.526 -2.588 -7.186 -10.718 -2.528 -5.626 -7.512 -14.562 -0.728 -15.496h0.002Z" stroke-width="1"></path><path id="Vector_2" fill="#000000" d="M379.182 281.142C331.134 201.296 62.802 14.092 32.724 55.708 0.954 99.666 294.646 315.6 368.426 315.6c15.726 0 24.806 -11.108 10.756 -34.458Zm2.344 26.652c-27.438 37.97 -293.26 -144.12 -342.08 -225.25 -12.92 -21.47 -5.228 -30.486 8.506 -30.486 74.188 0 362.5 215.724 333.574 255.742v-0.006Z" stroke-width="1"></path><path id="Vector_3" fill="#000000" d="M342.252 250.238C233.586 137.37 0.822 5.622 45.072 79.16c39.91 66.334 236.896 208.716 312.44 225.8 4.864 1.102 15.774 3.022 18.692 -1.018 7.032 -9.72 -25.658 -45.09 -33.952 -53.704Zm31.824 52.172c-1.942 2.678 -12.75 0.726 -15.984 0C283.268 285.478 86.848 143.494 47.322 77.8c-5.746 -9.55 -5.8 -14.102 -5.02 -15.176 0.164 -0.228 1.21 -1.364 5.674 -1.364 57.32 0 277.904 154.214 321.08 225.968 5.744 9.556 5.796 14.108 5.02 15.182Z" stroke-width="1"></path></g><g id="Group_2"><path id="Vector_4" fill="#92fcff" d="M158.948 315.496c0.028 10.03 1.38 12.884 5.53 19.53 6.636 10.628 11.226 16.726 24.534 21.636 10.4 3.838 13.2 1.214 20.088 0.822 11.35 -0.648 15.6 1.324 32.664 0.644 19.856 -0.79 26.942 3 44.188 -9.27a22.328 22.328 0 0 0 6.518 -6.612c9.68 -14.318 9.336 -16.186 8.754 -81.84 -0.104 -11.684 -3.672 -26.98 -12.118 -35.904 -9.494 -10.032 -21.19 -20.364 -35.16 -21.73 -1.8 -0.176 -5.444 -1.474 -7.234 -1.638 -5.438 -0.502 -10.834 0.8 -16.286 0.478 -9.926 -0.572 -34.186 -1.238 -43.516 2.308 -12.068 4.586 -21.482 14.6 -24.878 24 -4.204 11.63 -3.278 13.382 -3.084 87.576Z" stroke-width="1"></path><path id="Vector_5" fill="#000000" d="M259.784 360.092h-58.6a43.578 43.578 0 0 1 -43.542 -43.532v-73.686a43.58 43.58 0 0 1 43.532 -43.532h40.89a61.326 61.326 0 0 1 61.252 61.258v55.96a43.592 43.592 0 0 1 -12.764 30.768 43.592 43.592 0 0 1 -30.768 12.764Zm-58.6 -156.826a39.652 39.652 0 0 0 -39.6 39.6v73.694a39.648 39.648 0 0 0 39.6 39.6h58.6a39.652 39.652 0 0 0 39.6 -39.6V260.6a57.394 57.394 0 0 0 -57.328 -57.328l-40.872 -0.006Z" stroke-width="1"></path></g><g id="Group_3"><path id="Vector_6" fill="#fdfe1f" d="M388.6 66.456a12.856 12.856 0 0 0 -8.8 -8.946c-0.322 -0.09 -7.83 -1.524 -8.928 -1.462a73.382 73.382 0 0 0 -22.4 4.836c-13.55 5.254 -14.946 3.892 -19.326 6.166 -4.188 2.176 -35.668 14.632 -43.106 19.37 -10.924 6.958 -11.26 4.918 -22 12.14 -2.436 1.636 -33.624 15.748 -105.024 65.886 -45.38 31.864 -36.096 27.512 -43.868 33.132 -6.05 4.376 -30.366 24.094 -34.518 28.4 -9.386 9.722 -15.106 13.936 -18.228 16.956 -2.838 2.746 -5.25 5.902 -8.02 8.714 -7.416 7.526 -4.474 3.168 -14.038 16.888a59.388 59.388 0 0 0 -9.084 12.96 29.836 29.836 0 0 0 -4.1 12.088 13.586 13.586 0 0 0 4.484 11.53 26.344 26.344 0 0 0 9.546 3.826 70.928 70.928 0 0 0 9.4 -0.348c2.88 0.2 3.49 -0.2 26.294 -6.738 0.98 -0.124 1.948 -0.314 2.902 -0.564 22.068 -9.788 23.894 -9.562 31.028 -13.414a104.342 104.342 0 0 1 12.412 -5.692c2.788 -1.066 63.77 -33.674 69.734 -38.66a84.416 84.416 0 0 1 11.4 -7.282c10.2 -6.056 19.51 -14.144 29.786 -20.074 24.52 -14.156 52.55 -38.528 73.34 -53.656 5.116 -3.722 18.972 -15.978 22.748 -19.358 3.84 -3.434 8.722 -5.832 11.8 -9.96 4.702 -6.308 16.328 -13.658 36.232 -38.896 0.986 -1.252 1.4 -2.844 2.308 -4.16 4.456 -6.504 10.026 -16.032 8.026 -23.682Zm-11.27 10.052c-3.162 6.442 -4.376 9.24 -6.292 11.55 -1.242 1.5 -2.77 2.756 -3.904 4.338 -1.134 1.582 -1.85 3.47 -3.03 5.036 -2.308 3.064 -14.43 15.522 -15.72 16.676a46.008 46.008 0 0 0 -8.046 8.116c-6.678 7.6 -10.6 8.73 -14.476 12.332 -27.746 25.8 -26.298 21.88 -29.48 24.644 -24.262 21.064 -37.906 27.37 -43.83 33.316a13.388 13.388 0 0 0 -4.816 2.812c-15.318 12.444 -29.63 20.252 -36.104 24.956 -4.634 3.366 -1.678 1.634 -8.322 5 -7.506 3.8 -13.684 9.986 -21.452 13.212 -0.506 0.21 -1.09 0.492 -1.186 1.03 -5.228 1.944 -7.97 4.718 -16.726 9.81 -35.27 20.51 -38.966 20.77 -41.48 23.064 -2.134 1.938 -20.318 8.534 -25.788 12 -1 0.634 5.306 -2.384 -23.834 9.47 -6.13 2.492 -3.2 -0.188 -11.084 2.376 -1.758 0.574 -1.106 0.128 -2 0.19 -1.84 0.124 -3.6 2.048 -8.08 2.6 -1.456 0.178 -2.778 0.172 -9.82 0.35 -2.07 0.052 -2.078 -0.338 -3.4 -1.658 -4.418 -4.428 3.422 -15.956 7.1 -21 14.356 -19.708 33.876 -36.492 49.914 -51.152 1.322 -1.2 3.074 -1.846 4.364 -3.086 5.25 -5.042 -9.856 6.3 34.548 -27.986 40.896 -31.578 27.06 -18.988 41.4 -31.128a17.28 17.28 0 0 1 2.876 -1.6c5.536 -3.216 6.216 -4.746 18.62 -12.332 9.338 -5.712 6.292 -4.27 7.416 -5.362 0.448 -0.376 0.966 -0.654 1.526 -0.82 5 -1.884 103.962 -67.38 155.248 -76.468 3.882 -0.688 14.308 -1.46 16.544 0.482 2.43 2.094 0.538 6.724 -0.69 9.232h0.004Z" stroke-width="1"></path><g id="Group_4"><path id="Vector_7" fill="#000000" d="M388 61.948C359.384 19.28 84.828 196.704 33.84 275.076c-15.15 23.282 -5.896 34.846 10.908 34.846 75.754 0 373.4 -203.002 343.252 -247.974Zm-7.662 26.584C328.704 167.894 56.65 340.55 30.56 301.63 3.25 260.912 294.76 57.744 371.628 57.744c14.772 0 22.692 9.298 8.71 30.788Z" stroke-width="1"></path><path id="Vector_8" fill="#000000" d="M71.83 245.488c-8.72 8.444 -42.49 42.538 -35.818 52.486 2.772 4.134 13.75 2.6 18.646 1.672 76.116 -14.432 277.956 -149.8 320.176 -214.694 5.486 -8.43 7.5 -14.95 5.532 -17.886 -15.592 -23.24 -207.766 80.856 -308.536 178.422Zm300.8 -161.97C330.824 147.786 129.56 282.77 54.17 297.066c-3.3 0.626 -14.118 2.222 -15.976 -0.556 -0.738 -1.098 -0.528 -5.648 5.55 -15C89.904 210.58 312.972 66.95 371.6 66.95c4.086 0 6.106 0.85 6.6 1.58 0.722 1.1 0.512 5.648 -5.566 14.988h-0.004Z" stroke-width="1"></path></g></g><g id="Group_5"><path id="Vector_9" fill="#ffffff" d="M277.114 189.37c1.954 -4.646 1.306 -2.574 2.696 -10.776 0.208 -0.854 0.34 -1.724 0.4 -2.6 0.068 -0.716 0.23 -1.418 0.484 -2.09 1.366 -5.25 0.454 -10.812 0.134 -16.038a66.44 66.44 0 0 0 -0.652 -8.8 60.22 60.22 0 0 0 -1.336 -7.174 6.408 6.408 0 0 1 -0.34 -0.664c-2.57 -7.422 -3.118 -7 -5.4 -12.628 -0.438 -1.084 0.038 -0.966 -0.924 -2.528 -3.4 -5.512 -11.98 -17.914 -19.412 -24.214 -8.782 -7.444 -4.296 -4.786 -26.296 -14.75a51.184 51.184 0 0 0 -14.918 -4.986c-4.368 -0.628 -6.11 -0.344 -7.476 -0.838 -6.948 -2.51 -24.538 -0.89 -24.816 -0.908 -1.03 -0.066 -32.366 5.64 -50.326 23.64 -7.47 7.486 -12.85 16.746 -17.826 26.026C107.164 137.4 108.4 134.682 107 141.6c-1.364 6.698 -3 13.06 -2.846 19.892 -0.146 7.12 0.412 14.24 1.668 21.25 2.522 10.984 13 29.33 14.186 30.086A41.87 41.87 0 0 1 126.254 220c2.048 2.524 5.964 5.496 6 5.846 0.094 0.864 -3.718 3.892 -4.038 4.7 -2.042 5.15 1.082 12.082 6.08 14.472 -8.22 18.982 -14.8 32.38 -15.716 46.4 -0.764 11.752 3.224 24.516 12.914 31.21 14.46 10 63.848 13.858 99.416 8.582 16.668 -2.474 26.864 -8.012 28.38 -36.118 3.128 -57.916 -10.372 -45.214 -2.928 -56.358a9.206 9.206 0 0 0 -0.076 -10.09c-0.71 -1.032 -1.694 -2.114 -1.454 -3.346 0.46 -2.356 10.906 -8.776 15.086 -18.026 0.902 -1.68 1.416 -3.54 1.504 -5.446 0.24 -1.004 0.454 0.002 5.692 -12.456Z" stroke-width="1"></path><path id="Vector_10" fill="#ffc5f6" d="M148.554 228.874c1.904 -2.084 0.234 -2.938 -0.904 -4.714 -1.524 -2.378 -0.414 -5.782 -1.968 -8.14a10.66 10.66 0 0 0 -4.4 -3c-12.64 -6.528 -10.018 -24.426 -0.114 -36.928 1.35 -1.704 1.16 -2.51 -0.17 -3.8 -6.734 -6.552 -13.81 -14.97 -10.4 -24.376 2.768 -7.64 12.4 -12 22.55 -7.912 2.684 -9.148 8.85 -9.43 9.028 -12.628a4.156 4.156 0 0 0 -1.016 -2.482 6.94 6.94 0 0 1 -1.2 -0.908c-12.106 -10.6 -2.12 -22.356 3.902 -18.25 -1.72 -4.836 5.906 -13.732 22.65 1.46 2.02 1.83 4.084 3.954 6.788 4.296 3.976 0.506 7.304 -3.094 8.942 -6.752 1.254 -2.8 3.81 -12.41 7.918 -12.458 4.6 -0.052 2.756 7.7 6.2 9.6 3.628 2 7.556 -4 11.56 -2.924 2.888 0.774 3.552 4.514 3.6 7.502 0.2 13.906 9.722 4.494 13.104 8 1.938 2.014 1.472 9.38 -3.712 13.556 -2.308 1.86 -1.87 1.566 2.896 10.58 11.96 -2.028 23.542 17.954 -0.442 33.824a89.606 89.606 0 0 1 -18.94 49.788c7.366 2.292 10.158 3.372 16.12 8.472 0.646 0.552 2.218 1.894 2.126 2.738 -0.174 1.622 -2.178 1.8 -3.626 2.544 -11.462 5.944 -13.118 7.4 -27.486 10.818 -6.542 1.558 -24.492 2.42 -31.094 1.142 -22.58 -4.366 -21.468 -6 -27.428 -8.038a19.18 19.18 0 0 1 -6.334 -3.316c-0.786 -0.654 -3.046 -1.432 -2.758 -2.58 0.288 -1.148 0.564 -0.684 4.608 -5.114Z" stroke-width="1"></path><path id="Vector_11" fill="#fdfe1f" d="M198.562 111.388c0.614 -5.4 6.776 -17.328 8.706 -18.904a3.966 3.966 0 0 1 4.552 -0.554c3.286 2.2 0.354 9.096 5.052 10.516 4.184 1.262 7.924 -6.468 12.706 -3.12 3.676 2.574 1.104 10.764 2.238 13.126 2.238 4.662 9.7 -1.652 13.464 1.944 2.632 2.516 0.776 6.16 -1.458 9.026 -9.28 11.916 -13.38 14.6 -27.622 6.422 -13.106 -7.518 -17.638 -7.352 -17.638 -18.456Z" stroke-width="1"></path><path id="Vector_12" fill="#000000" d="M174.8 175.534c-5.85 -0.8 -12.6 -0.568 -17.586 2.6 -1.926 1.222 -3.054 2.854 -2.168 4.958 1.6 3.816 8.37 2.828 10.24 7.826 1.356 3.632 -0.388 9.074 -1.02 8.954 -0.632 -0.12 0.472 -4.97 -1.118 -7.974 -1.294 -2.444 -4.864 -2.418 -7.848 -3.888a7.334 7.334 0 0 1 -3.75 -8.896c6.096 -15.436 51.856 -6.646 43.24 8.782 -1.6 3.644 -6.16 4.256 -9.64 4.516 -5.284 0.4 -5.852 1.17 -7.636 4.524 -2.634 4.952 -3.02 4.088 -1.496 -0.666 2.444 -7.612 6.66 -5.838 12.11 -7.44 7.094 -2.092 5.82 -10.704 -13.328 -13.296Z" stroke-width="1"></path><path id="Vector_13" fill="#000000" d="M218.62 164.664c4.438 0.576 5.66 1.06 5.786 -0.3 0.85 -9.086 1.216 -9.584 -0.042 -9.77 -96.086 -14.166 -89.164 -13.648 -89.2 -12.016 -0.298 10.914 -0.632 11.182 0.6 11.34 4.92 0.638 6.022 0.462 5.938 1.72 -0.458 7 -0.824 7.762 0.42 7.928 4.582 0.6 5.564 0.45 5.508 1.66 -0.28 6 -0.636 6.942 0.6 7.09 20.662 2.448 20.942 2.93 21.038 1.426 0.34 -5.256 0.09 -6.542 1.486 -6.356 3.688 0.492 4.86 0.928 4.982 -0.39 0.648 -6.976 0.424 -7.84 1.758 -7.666 3.436 0.446 4.474 0.32 4.416 1.506 -0.312 6.344 -0.702 7.416 0.538 7.6 3.846 0.554 5.134 0.418 5.03 1.678 -0.448 5.332 -0.79 6.058 0.424 6.236 20.56 3 20.8 3.496 20.916 1.972 0.382 -4.982 0.152 -6.074 1.526 -5.876 5.048 0.726 6.288 1.254 6.436 -0.128 0.712 -6.758 0.482 -7.83 1.84 -7.654Z" stroke-width="1"></path><path id="Vector_14" fill="#ffffff" d="M146.908 152.904c-0.492 5.508 -0.82 6.182 0.246 6.348 4.23 0.654 5.118 0.524 5.042 1.584 -0.42 5.728 -0.668 6.08 0.35 6.228 4.56 0.666 5.472 1.068 5.574 -0.112 0.492 -5.722 0.73 -6.078 -0.264 -6.244 -4.51 -0.748 -5.2 -0.622 -5.09 -1.666 0.52 -5.15 0.912 -6.086 -0.2 -6.246 -4.594 -0.66 -5.554 -1.06 -5.658 0.108Z" stroke-width="1"></path><path id="Vector_15" fill="#ffffff" d="M187.4 158.082c-0.492 5.508 -0.82 6.182 0.246 6.348 4.23 0.654 5.12 0.524 5.042 1.584 -0.42 5.728 -0.668 6.08 0.35 6.228 4.56 0.666 5.472 1.068 5.574 -0.112 0.492 -5.722 0.73 -6.078 -0.264 -6.244 -4.51 -0.748 -5.2 -0.622 -5.09 -1.666 0.52 -5.15 0.912 -6.086 -0.2 -6.246 -4.604 -0.66 -5.564 -1.06 -5.658 0.108Z" stroke-width="1"></path><path id="Vector_16" fill="#000000" d="M242.8 155.276c2.984 -3.954 4.24 -7.498 3.738 -7.8 -0.67 -0.428 -3.304 3.25 -6.684 7.296 -4.34 5.08 -7.142 6.082 -6.858 6.812 0.118 0.316 1.332 0.256 3.082 -0.536A15.666 15.666 0 0 0 240.2 158.2c1.304 -0.054 2.6 -0.232 3.87 -0.532 8.73 -1.868 3.372 -3.668 -1.27 -2.392Z" stroke-width="1"></path><path id="Vector_17" fill="#000000" d="M206.118 140c-5.628 -0.572 -11.654 4.8 -12.578 3.572 -0.6 -0.8 2.926 -4.6 6.662 -6.348a11.974 11.974 0 0 1 15.672 5.028c1.358 2.652 1.012 4.546 0.524 4.6 -1.076 0.22 -3.198 -6.134 -10.28 -6.852Z" stroke-width="1"></path><path id="Vector_18" fill="#000000" d="M171.66 136.786c-5.63 -0.572 -11.654 4.8 -12.58 3.572 -0.586 -0.778 2.78 -4.53 6.662 -6.348a11.97 11.97 0 0 1 15.672 5.03c1.36 2.652 1.012 4.544 0.526 4.6 -1.078 0.218 -3.2 -6.134 -10.28 -6.854Z" stroke-width="1"></path><path id="Vector_19" fill="#000000" d="M259.23 146.584a15.508 15.508 0 0 0 -13.26 -9.75c-2.508 -0.132 -0.554 0.774 -3.074 -3.734 -3.016 -5.418 -3.478 -0.352 3.534 -11 2.546 -3.868 1.676 -8.01 -0.614 -9.68 -1.8 -1.24 -3.336 -1.068 -5.83 -0.614 -11.532 2.19 -5.692 -2.078 -7.386 -10.186a5.114 5.114 0 0 0 -4.77 -4.4c-3.982 -0.244 -8.946 5.044 -11.25 3.788 -2.08 -1.68 0.04 -7.56 -4.178 -9.844a7.048 7.048 0 0 0 -8.56 2.342c-2.276 2.874 -6.45 13.968 -6.966 15.91 -6.464 0.692 0.72 2.124 -18.744 -10.128 -8.898 -5.26 -15.104 -2.086 -16.556 2.686 -0.74 2.446 0.348 2.2 -0.92 2.044 -10.126 -1.566 -15.018 14.546 -0.666 23.236 1.496 0.89 -0.618 -0.46 -4.928 5.72 -5.412 7.728 -1.9 8.4 -4.86 6.46 -14.624 -9.65 -35.144 12.36 -8.7 35.2 -14.08 11.328 -16.5 36.82 3.444 41.536a18.702 18.702 0 0 0 1.874 8c2.042 4.2 2.622 1.502 -1.166 4.958a17.108 17.108 0 0 0 -3.988 5.142l2.18 2a36.108 36.108 0 0 0 7.466 -6.282c10.854 9.554 33.06 8.31 45.076 -0.706 6.6 -4.924 12.572 -14.954 9.72 -22.728 -0.582 -1.72 -20.776 4.512 -43.49 5.746 -8.726 0.388 -20.572 1.254 -25.19 -6.03 -5.6 -8.496 -0.456 -22.074 6.776 -29.62 3.5 -3.692 6.36 -5.39 6.044 -6.028 -0.144 -0.37 -2.036 -0.116 -4.78 1.366 -5.844 -4.896 -11.37 -10.46 -12.374 -18.064 -1.074 -7.894 4.564 -15.07 12.582 -13.39 8.076 1.696 9.084 9.384 9.862 9.18 0.492 -0.07 0.084 -3.69 -1.66 -6.498 3.4 -4.884 3.386 -6.26 10.088 -13.96 3.84 1.554 6.214 1.8 2.8 -0.872 -3.294 -2.62 -7.904 -5.32 -10.214 -10.248a7.812 7.812 0 0 1 0.282 -8.35c3.174 -3.636 9.26 1.24 15.584 4.956 19.26 11.324 -1.694 -6.52 -7.706 -9.45a3.676 3.676 0 0 1 2.556 -4.092c2.836 -1 5.94 0.496 8.528 2.04 14.788 9.316 13.708 7.62 12.288 8.236 -2.448 1.04 -3.7 2.2 -3.48 2.676 0.326 0.726 2.726 0.034 11.612 -0.744a10.252 10.252 0 0 0 1.576 6.114c5.018 7.434 25.512 15.912 29.894 16.612 3.924 0.65 7.284 -1.19 10.298 -3.814 0.448 0.842 2.4 4.36 2.842 5.112 -9 2.528 -15.528 11.8 -14.636 12.428 0.864 0.766 10.118 -9.718 19.46 -8.8 10.744 1 15.622 15.382 -0.84 27.07 -4.43 3.06 -9.492 5.48 -9.2 6.2 0.3 0.748 5.514 -1.056 6.28 -1.344 -2.718 18.072 -6.782 34.214 -20.754 46.876 -1.292 0 -8.476 0 -8.4 1.534 0.052 1.16 5.4 1.628 11.492 3.072 2.404 0.746 4.718 1.752 6.904 3 12.954 6.834 9.5 7.868 12.768 4.256a36.748 36.748 0 0 0 -18.556 -11.344c14.382 -11.186 19.632 -30.4 19.82 -48.788 13.002 -6.272 16.734 -17.504 14.066 -25.008ZM203.4 208.466c0.55 5.616 -2.086 9.704 -5.832 13.896 -11.67 13.056 -46.34 14.612 -49.472 -5.638 11.18 1.384 39.796 -0.838 55.304 -8.258Zm24.972 -76.536c-4.644 -0.752 -23.6 -9.536 -27.022 -14.76 -2.246 -3.36 0.2 -8.958 1.822 -12.844 1.506 -3.714 2.898 -9.6 6.356 -10.014 3.8 -0.446 0.764 6.306 5.032 9.446 3.698 2.816 8.8 -2.2 11.968 -3.412 4.67 -1.86 3.052 5.428 2.82 8.954 -0.532 10.534 12.128 4.946 14.2 6.154 0.834 0.574 0.6 2.7 -0.156 4.048 -0.12 0.202 -8.448 13.416 -15.028 12.428h0.008Z" stroke-width="1"></path><path id="Vector_20" fill="#000000" d="M253.92 244.366c5.734 -5.976 8.094 -12.8 1.722 -18.018 58.672 -53.982 17.922 -148.516 -63.04 -148.516 -81 0 -121.87 94.8 -62.788 148.75a12.376 12.376 0 0 0 -3.252 10.522 17.6 17.6 0 0 0 6.2 9.06 99.932 99.932 0 0 0 -13.332 40.774c-2.82 27.04 8 38.652 29.766 43.582a243.292 243.292 0 0 0 63.728 4.748c13.968 -0.83 29.448 -1.85 39.46 -11.848 9.494 -9.364 9.462 -23.342 9.84 -35.946 0.434 -15.808 -0.81 -29.724 -8.304 -43.108ZM105.706 164.238c0 -45.508 38.982 -82.532 86.896 -82.532s86.896 37.024 86.896 82.532c0 45.508 -38.98 82.534 -86.896 82.534 -47.916 0 -86.896 -37.024 -86.896 -82.534Zm26.08 64.09a94 94 0 0 0 121.92 -0.248c7.96 6.73 -2.926 16.138 -11.358 21.026 -44.394 26.41 -130.326 -1.474 -110.56 -20.778Zm126.53 59c-0.514 11.634 -0.544 24.826 -8.988 33 -9.064 8.91 -24.098 9.664 -36.626 10.366a246.68 246.68 0 0 1 -62.524 -4.56c-9.8 -2.142 -17.948 -5.212 -22.988 -13.678 -9.374 -15.988 -1.286 -48.216 7.982 -64.4 25.546 18.6 88.166 23.694 116.572 -1.62 6.378 12.032 7.152 27.204 6.572 40.898v-0.006Z" stroke-width="1"></path></g><g id="Group_6"><g id="Group_7"><path id="Vector_21" fill="#fdfe1f" d="M180.9 265.094a37.492 37.492 0 0 0 8.22 9.28 39.12 39.12 0 0 0 22.236 6.2c9.8 -0.368 17.858 -5.242 19.934 -8.276 0.914 -1.338 0.966 -1.838 5.306 -15.174 1.432 -4.4 2.282 -8 -1.24 -13.068a28.854 28.854 0 0 0 -11.154 -9c-1.034 -0.348 -2.12 -0.54 -3.132 -0.95 -1.152 -0.468 -2.176 -1.2 -3.306 -1.728 -4.232 -1.956 -19.8 -2.4 -27.066 2.974 -7.298 5.422 -13.11 22.876 -9.798 29.742Z" stroke-width="1"></path><path id="Vector_22" fill="#000000" d="M210.052 280.8a39.56 39.56 0 0 1 -21.052 -6.266 37.688 37.688 0 0 1 -8.278 -9.354c-3.346 -6.93 2.462 -24.496 9.856 -29.976 7.36 -5.452 23.042 -4.948 27.268 -3 1.13 0.522 2.164 1.264 3.296 1.724 1 0.4 2.09 0.6 3.12 0.944a29.004 29.004 0 0 1 11.254 9.07c3.4 4.892 2.828 8.44 1.266 13.24 -4.4 13.54 -4.44 13.922 -5.332 15.224 -2.45 3.58 -11.388 8.394 -21.398 8.394Zm-28.974 -15.8a37.358 37.358 0 0 0 8.156 9.2 38.996 38.996 0 0 0 22.114 6.166c9.704 -0.366 17.738 -5.2 19.78 -8.2 0.908 -1.328 0.966 -1.866 5.282 -15.124 1.444 -4.44 2.244 -7.906 -1.216 -12.894a28.65 28.65 0 0 0 -11.056 -8.92c-1.028 -0.346 -2.114 -0.538 -3.142 -0.954 -1.176 -0.476 -2.186 -1.2 -3.314 -1.73 -4.2 -1.948 -19.654 -2.4 -26.868 2.952 -7.214 5.352 -13.004 22.722 -9.736 29.514v-0.01Z" stroke-width="1"></path></g><g id="Group_8"><path id="Vector_23" fill="#000000" d="M192.344 232.698c-5.11 2.83 -8.942 6.11 -12.236 19.588a23.196 23.196 0 0 0 -0.914 10.884c4.416 18.304 43.8 27.174 54.866 5.54a75.19 75.19 0 0 0 5.288 -16.572c1.212 -14.638 -28.298 -29.638 -47.004 -19.44Zm39.51 8.982c-0.45 1.324 -0.926 3.382 -1.552 4.958 -0.574 1.444 -1.522 3.098 -2.12 4.346a33.67 33.67 0 0 0 -9.244 -5.684c1.456 -3.926 0.024 -2.756 3.954 -9.738a31.404 31.404 0 0 1 8.962 6.118Zm-10.61 -6.824c-2.232 7.776 -2.154 5.476 -4.156 9.708a48.364 48.364 0 0 0 -11.558 -2.762c2.214 -7.174 0.152 -2.36 3.982 -9.718 4.022 0.362 7.974 1.294 11.732 2.772Zm-13.698 -2.896c-2.264 8.164 -2.706 6.334 -4.068 9.662a33.11 33.11 0 0 0 -9.746 0.704c0.964 -6.2 1.222 -4.76 2.788 -8.812a29.5 29.5 0 0 1 11.026 -1.554Zm-13.086 2.4c-0.92 6.068 -3.462 8.4 -2.776 8.582a18.692 18.692 0 0 0 -8.33 6.264c3.3 -10.164 6.152 -12.482 11.106 -14.84v-0.006Zm31.058 40.694c-16.54 11.012 -41.728 0.284 -44.238 -12.348a20.408 20.408 0 0 1 0.834 -9.112c3.628 -8.2 11.068 -10.734 19.182 -10.588 24.632 0.318 42.352 19.994 24.222 32.054v-0.006Zm8.566 -12.462a14.856 14.856 0 0 0 -4.4 -10.132c1.332 -4.8 0.352 -4.106 3.518 -9.364 5.544 6.316 4.028 10.08 0.882 19.504v-0.008Z" stroke-width="1"></path><path id="Vector_24" fill="#000000" d="M228.568 259.988c-4.886 -10.702 -22.6 -15.018 -35.956 -11.854 -14.94 3.58 -8.928 23.262 9.724 26.848 3.2 0.614 -0.8 -0.52 -3.052 -1.428 -15.088 -6.224 -16.312 -17.6 -10.8 -21.956 4.336 -3.43 19.494 -5.212 31.688 1.702 4.306 2.492 8.63 7.278 8 11.766a11.706 11.706 0 0 1 -7.98 8.93c-9.664 3.274 -16.324 0.548 -16.45 1.168a17.88 17.88 0 0 0 4.44 0.962c17.168 1.924 23.962 -8.686 20.386 -16.138Z" stroke-width="1"></path></g></g><g id="Group_9"><path id="Vector_25" fill="#fdfe1f" d="M150.418 247.926c-0.898 -5.676 0.474 -7.838 3.894 -11.306 8.19 -8.298 15.072 -13.984 27.032 -11.044a57.118 57.118 0 0 1 11.078 4.614 54.982 54.982 0 0 1 7.052 6.2c4.918 5.138 9.956 13.884 7.574 20.962a25.21 25.21 0 0 1 -5.858 8.624c-9.718 10.632 -18.096 14.9 -34.022 5.412 -3.958 -2.36 -4.958 -4.146 -7.884 -6.6a29.468 29.468 0 0 1 -8.866 -16.862Z" stroke-width="1"></path><g id="Group_10"><path id="Vector_26" fill="#000000" d="M207.578 247.224c-5.538 -14.962 -23.67 -27.316 -39.63 -22.022 -4.762 1.578 -9.614 6.616 -13.018 10.2 -3.448 3.574 -5.498 5.844 -5.534 10.612 -0.038 15.326 17.888 32.17 33.82 31.8 5.726 -0.172 10.52 -1.324 19.4 -11.546 5.146 -5.884 7.964 -10.726 4.962 -19.044Zm-47.248 -14.078a14.522 14.522 0 0 0 -0.716 10.772c-3.288 3.558 -2.144 3.412 -7.25 6.564 -1.99 -7.982 1.036 -10.566 7.966 -17.336Zm-7.426 19.176c0.982 -0.95 2.316 -2.524 3.568 -3.612 1.144 -1 2.71 -2.012 3.786 -2.828a32.932 32.932 0 0 0 5.488 9.078c-3.052 2.786 -1.212 2.35 -7.8 6.692a30.74 30.74 0 0 1 -5.042 -9.33Zm6.162 10.682c5.574 -5.92 3.97 -3.526 7.96 -6.576a47.35 47.35 0 0 0 8.8 7.574c-5.12 5.234 -1.178 1.972 -7.812 6.664a41.566 41.566 0 0 1 -8.948 -7.666v0.004Zm10.6 8.648c5.65 -6.104 5.174 -4.282 7.86 -6.572a32.47 32.47 0 0 0 8.784 3.75c-3.6 4.948 -3.186 3.588 -6.366 6.41a28.86 28.86 0 0 1 -10.27 -3.588h-0.008Zm12.45 3.768c3.352 -4.63 6.716 -5.8 6.254 -6.214a18.308 18.308 0 0 0 10.042 -1.714c-7.332 7.28 -10.872 8.108 -16.288 7.928h-0.008Zm24.144 -18.732a19.98 19.98 0 0 1 -4.8 7.546c-6.828 5.508 -14.426 4.374 -21.412 0.612 -21.274 -11.302 -27.838 -36.324 -6.7 -38.694 19.652 -2.204 36.314 18.712 32.92 30.536h-0.008Z" stroke-width="1"></path><path id="Vector_27" fill="#000000" d="M195.9 238.822a19.286 19.286 0 0 0 -3.4 -2.862c-0.292 0.334 6.2 4.824 8.634 13.542 2.02 7.478 -1.4 12.704 -6.1 13.624 -5.4 1.056 -14.966 -3.942 -19.376 -7.484 -8.76 -7.098 -15.148 -19.632 -5.84 -24.822 10.362 -5.8 26.224 8.142 21.706 4.17 -7.096 -6.262 -20.15 -10.218 -26 -2.08 -4.74 6.45 1.136 22.326 19.172 29.62 3.444 1.37 7.032 2.7 10.616 1.922 8.106 -1.652 11.714 -14.052 0.588 -25.63Z" stroke-width="1"></path><path id="Vector_28" fill="#000000" d="M195.852 256.474c-0.068 -0.288 -0.684 -2.49 -2.96 -10.674a0.276 0.276 0 0 0 -0.088 -0.172 0.274 0.274 0 0 0 -0.18 -0.074c-1.246 -0.254 -3.84 -0.8 -3.932 -0.81 0.26 0.812 -0.104 -0.444 1.876 6.644 0.14 0.496 0.43 0.224 -7.03 -1.226l1.094 3.964 11.22 2.348Z" stroke-width="1"></path><path id="Vector_29" fill="#000000" d="m178 239.782 6.91 1.45 -1.094 -3.96 -11.2 -2.346 3.014 10.844 4.084 0.848c-2.016 -7.358 -2.03 -6.906 -1.714 -6.836Z" stroke-width="1"></path><path id="Vector_30" fill="#000000" d="m186.836 248.112 -1.11 -3.976 -4.122 -0.866 1.106 3.98 4.126 0.862Z" stroke-width="1"></path><path id="Vector_31" fill="#000000" d="m191.986 242.684 -1.098 -3.918 -4.052 -0.856 1.094 3.928 4.056 0.846Z" stroke-width="1"></path><path id="Vector_32" fill="#000000" d="M177.474 252.47c0.08 0.29 -0.154 0.132 4 1.014 0.244 0.054 0.234 0.266 -0.9 -3.812 -0.056 -0.2 0.354 -0.042 -4.144 -0.982 0.034 0.15 0.61 2.202 1.044 3.78Z" stroke-width="1"></path></g></g><g id="Group_11"><path id="Vector_33" fill="#fdfe1f" d="M259.028 258.788c1.666 7.2 -3.784 16.702 -8.54 22.156 -6.638 7.612 -14.09 9.79 -22.658 11.078a12.256 12.256 0 0 1 -10.212 -1.978 25.93 25.93 0 0 1 -7.98 -5.978c-6.53 -8.268 -11.45 -12.698 -6.874 -22.878 10.432 -23.2 35.88 -26.508 46.236 -15.658 3.376 3.536 8.62 7.168 10.028 13.258Z" stroke-width="1"></path><g id="Group_12"><path id="Vector_34" fill="#000000" d="M259.04 254.696a74.79 74.79 0 0 0 -12.334 -12.268c-19.564 -13.93 -50.718 11.666 -46.128 30.214 1.484 6 11.692 15.868 16.584 18.8 6.2 3.878 19.734 3.6 32.268 -7.9 7.898 -7.262 14.728 -20.716 9.61 -28.846Zm-1.282 10.848c-5.282 -3.236 -4.134 -3.138 -7.44 -6.686a14.884 14.884 0 0 0 -0.768 -11.014c8.274 8.01 10.02 10.324 8.208 17.7Zm-55.118 6.542c-3.6 -12.35 13.68 -33.512 33.558 -31.352 6.936 0.752 10.774 3.932 12.734 8.826 3.822 11.35 -8.932 25.142 -19.448 30.778 -7.062 3.832 -14.842 5.1 -21.898 -0.544a20.442 20.442 0 0 1 -4.946 -7.708Zm8.068 11.026a19.754 19.754 0 0 0 10.2 1.78c1.694 1.932 3.14 1.682 6.492 6.27 -7.218 0.278 -10.902 -2.346 -16.692 -8.05Zm18.916 7.856c-3.2 -2.822 -2.86 -1.516 -6.536 -6.532a33.12 33.12 0 0 0 8.974 -3.872c2.684 2.274 2.366 0.566 8.064 6.7a29.53 29.53 0 0 1 -10.502 3.704Zm12.19 -4.72c-6.78 -4.758 -2.728 -1.432 -8.016 -6.788a48.432 48.432 0 0 0 8.982 -7.78c4.1 3.11 2.49 0.708 8.166 6.696a42.502 42.502 0 0 1 -9.132 7.872Zm10.268 -9.256c-6.774 -4.446 -4.638 -3.77 -8 -6.818a33.672 33.672 0 0 0 5.582 -9.306c1.106 0.83 2.708 1.86 3.884 2.878 1.282 1.108 2.654 2.714 3.662 3.684a31.448 31.448 0 0 1 -5.128 9.57v-0.008Z" stroke-width="1"></path><path id="Vector_35" fill="#000000" d="M209.168 277.466c6.166 6.444 19.4 -0.278 25.722 -5.388 9.568 -7.828 16.274 -21.974 5.532 -27.682 -10 -5.336 -24.02 5.8 -23.6 6.29 0.296 0.366 5.688 -5.096 15.134 -6.55a11.724 11.724 0 0 1 11.2 4.246c9.954 13.924 -29.744 42.742 -35.298 24.38 -4 -11.9 12.736 -25.17 7.8 -21.27 -7.802 6.178 -13.328 18.962 -6.49 25.974Z" stroke-width="1"></path><path id="Vector_36" fill="#000000" d="M233.944 249.718a12.286 12.286 0 0 1 -1.4 -1.22c-2.098 1.686 -6.116 6.01 -9.716 8.878 -13.362 10.65 -10.524 7.056 -9.28 9.428 -2.182 1.6 -2.706 4.504 0.506 1.498 0.272 -0.254 0.186 -0.264 0.338 -0.032 1.156 1.776 1.4 1.286 0.968 1.642 -2.518 2.1 -1.742 3.376 0.962 1.12 0.532 -0.444 0.264 -0.412 0.79 -0.13 5.304 2.944 11.086 -4.622 10.614 -9.54a6.36 6.36 0 0 0 6.468 -1.108 6.382 6.382 0 0 0 2.06 -6.23c1.814 -1.062 2.374 -2.812 2 -3.034 -0.374 -0.222 -1.23 0.548 -2.266 1.416 -0.452 0.382 0 0.384 -1.19 -1.49 2.988 -2.154 2.026 -3.598 -0.854 -1.198Zm-17.7 16.032a73.236 73.236 0 0 1 7.128 -7.162 7.446 7.446 0 0 1 2.222 3.738c0.65 5.352 -6.062 11.946 -9.35 3.424Zm18.47 -9.092a3.76 3.76 0 0 1 -1.058 2.288c-0.604 0.62 -1.402 1.012 -2.262 1.112 -2.614 0.284 -4.176 -2 -5.434 -3.416 2.22 -1.588 4.614 -3.14 6.436 -4.4a5.838 5.838 0 0 1 2.318 4.416Z" stroke-width="1"></path></g></g><g id="Group_13"><path id="Vector_37" fill="#fdfe1f" d="M263.35 288.966c1.244 1.744 3.932 10.376 4.458 11.2 0.772 2.494 1.06 5.112 0.848 7.714a23.782 23.782 0 0 1 -3.62 10.542c-3.304 5.722 -7.2 8.474 -14.63 12.748a29.91 29.91 0 0 1 -8.424 2.582c-5.082 1.456 -5.038 1.074 -11.822 0.58a14.834 14.834 0 0 1 -4.506 -1.578 12.66 12.66 0 0 1 -4.284 -3.864c-6.2 -7.6 -6.874 -17.878 -8.328 -20.434 -0.34 -0.6 0.42 -3.182 0.422 -4.146 0 -0.23 2.748 -5.086 3.02 -5.544 5.106 -8.626 8.658 -9.624 12.464 -12.52a13.69 13.69 0 0 1 7.422 -3.642c8.414 -1.98 9.834 -1.648 13.588 -1.378 0.046 0 1.8 0.078 1.846 0.102 4.864 2.674 6.052 1.072 9.228 4.864 0.076 0.104 2.248 2.676 2.318 2.774Z" stroke-width="1"></path><g id="Group_14"><path id="Vector_38" fill="#000000" d="M269.244 302.828a74.734 74.734 0 0 0 -5.916 -16.36c-9.138 -14.144 -47.894 -3.688 -50.846 19.26 -1.084 5.358 3.672 17.096 6.374 21.874 11.016 19.478 55.216 1.198 50.388 -24.774Zm-7.93 -15.038a92.714 92.714 0 0 1 4.222 10.176 14.868 14.868 0 0 0 -9.662 -5.346c-1.872 -4.6 -2.23 -3.486 -2.924 -9.568a12.578 12.578 0 0 1 8.364 4.748v-0.01Zm-10.304 -5.038c0.452 1.322 1.33 3.244 1.8 4.874 0.426 1.496 0.682 3.384 0.968 4.738a33.63 33.63 0 0 0 -10.79 1.132c-1.252 -4.028 -1.646 -2.146 -2.8 -10.128a31.466 31.466 0 0 1 10.822 -0.616Zm-12.57 1.062c3.024 7.648 1.52 5.146 2.628 10.228a48.414 48.414 0 0 0 -10.842 4.862c-2.624 -7.038 -1.324 -2 -2.774 -10.132a42.492 42.492 0 0 1 10.988 -4.958Zm-12.62 6.06c3.19 7.87 1.718 6.66 2.668 10.136a33.27 33.27 0 0 0 -7.294 6.502c-2.968 -5.4 -1.848 -4.2 -3.166 -8.682a29.522 29.522 0 0 1 7.792 -7.956Zm-8.904 9.888c2.972 5.366 2.384 8.772 3.034 8.494a18.708 18.708 0 0 0 -2.778 10.042c-3.53 -9.898 -2.798 -13.558 -0.256 -18.536Zm50.472 8.49c-1.67 15.366 -18.748 27.092 -35.218 25.37 -7.82 -0.858 -10.518 -4.766 -13.306 -11.088 -3.018 -12.352 7.2 -20.932 19.022 -25.784 20.068 -7.832 30.658 0.862 29.502 11.502Z" stroke-width="1"></path><path id="Vector_39" fill="#000000" d="M248.652 297.626c-15.478 2.112 -35.74 18.262 -24.148 28.54 8.476 7.75 24.776 1.1 24.434 0.368 -0.178 -0.416 -7.162 3.644 -16.292 2.104 -7.652 -1.354 -11.168 -6.76 -9.96 -11.572 2.538 -10.118 24.484 -22.612 36.256 -16.568 6.342 3.142 7.886 13.89 -6 23.502 -2.232 1.522 -5.564 3.312 -2.672 2.052 19.832 -8.604 19.442 -31.148 -1.618 -28.426Z" stroke-width="1"></path></g></g><g id="Group_15"><path id="Vector_40" fill="#fdfe1f" d="M162.114 277.134a9.924 9.924 0 0 1 -0.182 1 5.22 5.22 0 0 0 -0.342 0.868 35.92 35.92 0 0 0 1 8.254c0.648 3.01 -0.576 3.65 4.824 13.488a11.996 11.996 0 0 0 3.986 4.916c3.4 2.942 2.524 2.45 3.108 2.754 1.212 0.788 2.366 1.66 3.454 2.612 1.438 1.032 2.94 1.966 4.5 2.8 3.48 1.894 12.296 1.358 15.4 0.576a31.84 31.84 0 0 0 10.526 -5.774c3.43 -2.492 7.09 -5.316 8.128 -9.424 0.676 -2.19 1.002 -4.476 0.964 -6.768 -1.614 -13.102 -11.934 -25.744 -19.8 -28.826 -10.686 -4.186 -14.702 -3.424 -23.2 1.302 -5.054 2.816 -10.85 6.422 -12.366 12.222Z" stroke-width="1"></path><g id="Group_16"><path id="Vector_41" fill="#000000" d="M218.326 291.474c-1.99 -15.908 -16.956 -32.748 -34.334 -31.18 -5.12 0.462 -11.14 4.358 -15.346 7.124 -4.284 2.768 -6.84 4.546 -7.988 9.282 -3.62 15.286 10.34 36.22 26.264 39.562 5.726 1.16 10.764 1.154 22.018 -6.97 6.502 -4.674 10.434 -8.834 9.386 -17.818ZM169.958 269.4c6.26 -4.19 4.574 -3.084 3.736 -1.848a15.516 15.516 0 0 0 -2.37 9.45c-4.088 2.764 -2.94 2.904 -8.75 4.844 -0.108 -7.556 2.736 -9.414 7.384 -12.446Zm-7.276 14.4c1.2 -0.716 2.896 -1.974 4.4 -2.766 1.374 -0.728 3.168 -1.372 4.432 -1.932a33.66 33.66 0 0 0 3.346 10.32c-3.696 2.068 -1.754 2.06 -9.324 4.848a31.486 31.486 0 0 1 -2.854 -10.47Zm3.644 12.076c6.752 -4.472 5.2 -2.768 9.46 -4.692a48.32 48.32 0 0 0 7 9.6c-6.384 4.054 -1.764 1.744 -9.334 4.812a42.64 42.64 0 0 1 -7.126 -9.724v0.004Zm8.548 11.09c7.066 -4.776 6.134 -3.046 9.36 -4.714a33.24 33.24 0 0 0 7.876 5.786c-4.668 4.022 -3.71 2.67 -7.836 4.898a29.504 29.504 0 0 1 -9.4 -5.974v0.004Zm11.526 6.654c4.2 -3.64 8.018 -4.254 7.678 -4.73a18.706 18.706 0 0 0 10.4 0.634c-9.026 5.548 -12.746 5.536 -18.08 4.096Zm28.416 -13.024a20.416 20.416 0 0 1 -6.546 6.4c-8.084 3.892 -15.386 1 -21.466 -4.386 -18.552 -16.224 -19.266 -42.676 2.354 -40.102 20.088 2.388 31.794 27.102 25.654 38.092l0.004 -0.004Z" stroke-width="1"></path><path id="Vector_42" fill="#000000" d="M208.654 280.38a17.82 17.82 0 0 0 -2.714 -3.64c-0.386 0.278 5.046 6.218 5.44 15.502 0.266 7.934 -4.374 12.324 -9.256 12.144 -5.626 -0.2 -14 -7.422 -17.55 -11.972 -7.086 -9.132 -10.502 -23.094 -0.026 -26.088 11.56 -3.322 24.146 14.122 20.646 9.218 -12.512 -17.566 -34.512 -12.6 -27.474 7.472 5.02 14 18.4 22.658 24.368 22.756 8.454 0.244 14.95 -11.258 6.566 -25.392Z" stroke-width="1"></path><path id="Vector_43" fill="#000000" d="M195.04 286.768c1.872 -0.518 2.54 -2.292 3.14 -3.434 1.98 -3.734 1.508 -4.018 1.174 -4.666 -9.08 -5.558 -9.55 -6.118 -15.902 -8.612a80.468 80.468 0 0 0 4.4 14.226c1 2.4 0.704 2.026 1.24 2.2a11.626 11.626 0 0 0 5.948 0.286ZM186 272.976a90.216 90.216 0 0 1 11.878 6.824 17.02 17.02 0 0 1 -1.236 2.716c-0.828 1.566 -1.27 3.832 -6.628 2.412A64.046 64.046 0 0 1 186 272.976Z" stroke-width="1"></path><path id="Vector_44" fill="#000000" d="M197.62 295.634a15.048 15.048 0 0 0 7.726 4.33c2 -2.2 -1.786 -15.782 -3.818 -19.456 -5.384 11.684 -2.492 7.172 -11.814 8.176 4.15 3.498 1.55 1.58 7.906 6.95Zm1.216 -6.124c3.4 -3.2 2.144 -7.17 3.338 -2.572a73.788 73.788 0 0 1 2.08 11.026 18.33 18.33 0 0 1 -5.662 -3.8c-8.124 -6.984 -2.908 -1.686 0.244 -4.654Z" stroke-width="1"></path></g></g><g id="Group_17"><path id="Vector_45" fill="#fdfe1f" d="M164.976 266.182c4.132 5.444 5.87 10.26 0.268 21.924 -5.674 11.82 -18.448 21.58 -32.422 20.452a13.104 13.104 0 0 1 -5.158 -1.262 17.216 17.216 0 0 1 -4.758 -3.634c-4.94 -5.986 -24.488 -15.8 -4.668 -39.898 7.696 -9.358 16.786 -12.788 29.082 -12.4 1.674 0.09 3.3 0.582 4.746 1.434a115.242 115.242 0 0 1 12.91 13.384Z" stroke-width="1"></path><g id="Group_18"><path id="Vector_46" fill="#000000" d="M168.838 268.66c-1.382 -2.888 -9.06 -10.954 -12.22 -13.532 -20.524 -16.532 -51.64 12.512 -47.6 31.486 1.974 8.018 14.05 20.35 19.216 22.124 22.766 7.906 48.26 -24.05 40.604 -40.078Zm-1.81 10.928c-5.352 -3.534 -4.116 -3.4 -7.464 -7.222a17.33 17.33 0 0 0 -0.772 -11.94c8.53 8.862 10.038 11.286 8.236 19.162ZM145.8 252.72a14.06 14.06 0 0 1 12.3 9.492c5.618 18.658 -30.06 52.658 -44.974 28.536 -9.034 -14.618 11.806 -41.212 32.674 -38.028Zm-26.346 45.904a18.104 18.104 0 0 0 10.29 1.906c1.738 2.126 3.2 1.822 6.638 6.9 -7.406 0.338 -11.306 -2.83 -16.928 -8.806Zm19.2 8.588c-3.464 -3.26 -2.892 -1.646 -6.654 -7.152a32.124 32.124 0 0 0 9.072 -4.186c2.9 2.574 2.388 0.652 8.178 7.296a28.106 28.106 0 0 1 -10.604 4.042h0.008Zm12.298 -5.142c-1.15 -0.86 -3.054 -2.036 -4.376 -3.236 -1.368 -1.242 -2.774 -3.11 -3.746 -4.156a50.228 50.228 0 0 0 9.108 -8.426c4.126 3.298 2.624 0.918 8.238 7.26a43.818 43.818 0 0 1 -9.232 8.558h0.008Zm10.366 -10.054c-7.124 -5 -4.47 -3.96 -8.07 -7.4a37.46 37.46 0 0 0 5.664 -10.09c1.12 0.894 2.712 2 3.874 3.08 1.306 1.212 2.69 2.952 3.708 4a35.022 35.022 0 0 1 -5.184 10.41h0.008Z" stroke-width="1"></path><path id="Vector_47" fill="#000000" d="M117.426 291.964c5.974 7.722 19.43 0.838 26.5 -5.28 9.61 -8.41 16.244 -23.18 6.17 -29.664 -10.234 -6.55 -24.902 5.948 -24.44 6.464 0.276 0.322 6.076 -5.734 15.642 -7.17 5.75 -0.774 12.348 2.632 12.31 9.846 0.17 14.498 -21.354 30.244 -31.14 27.532 -4.448 -1.232 -7.966 -6.882 -5.8 -15.242 2.558 -9.646 9.138 -14.45 8.8 -14.8 -0.188 -0.2 -2.89 2.5 -3.516 3.2 -6.17 6.916 -10.082 18.162 -4.526 25.114Z" stroke-width="1"></path><path id="Vector_48" fill="#000000" d="M129.348 277.78c0.152 -0.156 0.378 0.188 -3.068 -3.2 -0.044 -0.042 -0.076 -0.026 -0.152 0.052 -4.912 5.028 -3.728 3.2 -4.99 7.182a82.494 82.494 0 0 0 6.464 6.318c4.1 -1.4 1.386 0.632 11.2 -9.358 0.146 -0.148 0.038 0.064 1.048 -3.13 0.126 -0.4 -4.4 -4.088 -4.114 -4.388l3.928 -4c0.154 -0.158 -0.088 -0.272 2.2 1.952 0.038 0.038 0.026 0.066 -0.044 0.138l-1.874 1.91c-0.16 0.162 -0.38 -0.18 3.06 3.2 0.046 0.046 0.08 0.026 0.16 -0.056 4.9 -5.016 3.73 -3.216 4.972 -7.13a51.67 51.67 0 0 0 -6.582 -6.32c-3.16 1.07 -2.968 0.964 -3.116 1.114 -9.734 9.904 -7.736 7.176 -9.042 11.308 -0.128 0.4 4.444 4.038 4.11 4.376l-3.926 4c-0.07 0.072 -0.102 0.09 -0.144 0.05 -2.2 -2.178 -2.114 -1.96 -1.962 -2.112 0.624 -0.632 1.246 -1.27 1.872 -1.906Z" stroke-width="1"></path></g></g><g id="Group_19"><path id="Vector_49" fill="#ffffff" d="M293.734 299.076c0.418 -1.956 0.256 -2.064 -1.924 -21.432 -1.444 -12.83 -4.646 -11.6 -6.776 -18.476 -0.884 -2.864 -0.8 -6.05 -2.258 -8.666 -2.108 -3.768 -6.8 -5.282 -9.582 -8.584 -3.024 -3.586 -3.8 -9.23 -8.012 -11.302a10.048 10.048 0 0 0 -9.414 1.248c-13.944 8.54 1.376 18.976 -0.35 27.8a23.062 23.062 0 0 0 -1.21 5.238c0.136 3.06 3.158 5.4 3.346 8.456 0.184 3.016 -2.384 5.4 -3.562 8.2 -1.658 3.908 -0.514 8.532 -1.984 12.512 -2.19 5.93 -9.552 8.934 -11.2 15.036 -4.6 0.58 -6.26 -6.54 -15.024 1.8 -0.16 0.144 -0.304 0.302 -0.432 0.476 -9.178 -5.526 -22.076 -4.648 -29.832 -17.126a14.734 14.734 0 0 0 -2.914 -4.388 10.37 10.37 0 0 0 -1.184 -0.69c-0.566 -0.492 -1.012 -0.354 -1.362 -0.518 -2.434 -1.134 -3.448 -2.102 -8.71 2.258 -0.988 0.818 -1.128 3.122 -2.728 5.05 -1.666 2 -2.566 -5.018 -9.088 -2.544a21.35 21.35 0 0 0 -5.614 3.8 62.994 62.994 0 0 1 -20.36 10.83c-6.082 -7.432 -11.922 -2.874 -14.856 -2.978 -5.732 -0.2 -7.916 -9.244 -6.962 -15.728 0.764 -5.2 -1.916 -10.336 -0.526 -15.484 0.6 -2.22 1.864 -4.2 2.532 -6.4 0.99 -3.258 0.64 -6.89 2.122 -9.956 0.798 -1.408 1.696 -2.754 2.692 -4.03 3.436 -5.034 5.078 -12.932 1.44 -17.73a8.908 8.908 0 0 0 -10.452 -2.4 88.692 88.692 0 0 0 -17.054 13.212c-4.862 4.822 -2.6 6.678 -4.538 10.458 -1.964 3.82 -7.378 4.772 -9.442 8.538 -1.32 2.41 -0.932 5.35 -1.328 8.068 -1.072 7.324 -7.952 13.466 -6.896 20.8 0.578 4.02 3.512 7.39 4.164 11.4 0.684 4.216 -1.242 8.626 -0.11 12.746 1.434 5.2 7.142 8.042 9.672 12.814 1.686 3.18 2.044 7.314 4.962 9.418 3.072 2.216 7.512 1.06 10.916 2.718 4.016 1.958 7.34 9.872 15.346 13.074a12.52 12.52 0 0 0 12.76 -1.55c8.466 8.43 11.632 8.268 21.788 7.724 12.81 -0.686 14.972 2.85 20.928 3.724 5.042 0.74 10.026 -1.318 15.074 -2.012 16.178 -2.226 30.15 8.022 40.908 -16.454a50.78 50.78 0 0 1 -3.6 7.102c-0.2 1.524 2.376 2.412 3.502 2.488a36.364 36.364 0 0 0 5.056 -0.554c3.99 -0.294 4.694 0.526 7.878 -3.134 7.47 -8.588 7.336 -8.55 8.078 -8.976 2.904 -1.666 6.914 2.428 11.8 -6.502 1.572 -2.882 2.84 -6.112 5.456 -8.094 3.458 -2.622 8.872 -2.742 11.022 -6.512 2.174 -3.81 -0.552 -8.706 0.54 -12.952 1.146 -4.558 6.328 -7.246 7.302 -11.816Zm-55.062 39.356c-0.27 -5.652 -3.984 -18.822 -9.83 -24.42 6.7 3.542 10.316 16.02 9.83 24.42Z" stroke-width="1"></path><path id="Vector_50" fill="#000000" d="M269.484 256.05c-5.858 0.96 -10.318 3.162 -10.84 2.372 -0.24 -0.362 0.614 -1.448 2.422 -2.648 8.498 -5.638 19.858 -2.476 19.448 -0.936 -0.244 0.916 -5.172 0.254 -11.03 1.212Z" stroke-width="1"></path><path id="Vector_51" fill="#000000" d="M274.266 276.288c-7.818 -1.486 -14.238 0.4 -14.576 -0.504 -0.146 -0.39 1.304 -1.452 4.056 -2.284 13.018 -3.946 25.6 6.2 24.264 7.666 -0.642 0.714 -5.926 -3.392 -13.744 -4.878Z" stroke-width="1"></path><path id="Vector_52" fill="#000000" d="M270.754 298.634c-8.838 -3.142 -17.46 -2.072 -17.6 -3.184 -0.122 -1 9.628 -3.156 18.708 0.094 10 3.58 14.284 12.488 13.296 13.042 -1.08 0.614 -4.394 -6.386 -14.404 -9.952Z" stroke-width="1"></path><path id="Vector_53" fill="#000000" d="M260.706 315.112c-7.032 -7.22 -15.268 -9.588 -14.978 -10.534 0.092 -0.4 2.314 -0.364 5.684 0.774 17.054 5.756 21.166 24.704 19.262 25.038 -1.12 0.196 -2.162 -7.262 -9.968 -15.278Z" stroke-width="1"></path><path id="Vector_54" fill="#000000" d="M293.88 288.316c-1.776 -6.356 -1.386 -6.364 -0.364 -11.28 1.844 -10.124 -3.882 -11.166 -6.686 -16.628 -1.176 -2.318 -0.666 -4.816 -0.954 -7.896 -0.648 -8.174 -7.704 -8.556 -9.756 -12.552a21.782 21.782 0 0 0 -3.212 -6.308 13.56 13.56 0 0 0 -22.434 1.992 13.56 13.56 0 0 0 -1.526 8.566c0.652 5 4.256 7.852 5.07 11.078 0.95 2.862 -1.946 6.942 -0.564 11.368 0.752 2.556 2.244 4.764 2.35 6.52 0.12 2 -1.708 3.19 -2.58 5.562 -1.552 3.44 -1.23 7.682 -1.4 10.704 -0.448 10.28 -8.378 7 -11.638 16.966 -6.3 -3.088 -11.786 -2.07 -15.568 1.928 -5.534 -3.418 -12.38 -4.758 -18.16 -7.63 -4.862 -2.416 -7.642 -9.364 -13.026 -12.848 -6.338 -4.07 -13 -0.6 -15.378 5.976a8.62 8.62 0 0 0 -5.6 -2.908c-7.242 -0.58 -9.4 6.386 -17.638 10.702 -3.6 1.812 -7.566 3.146 -11.2 4.964a15.25 15.25 0 0 0 -16.066 -2.964c-0.962 -1.106 -2.016 -2.032 -2.8 -2.976 -4.132 -5.224 -0.6 -9.328 -0.75 -16.39a19.318 19.318 0 0 0 -1.702 -6.76c-0.97 -3.724 4.618 -5.914 4.712 -12.132 0.15 -6.8 -1.064 -5.418 4.74 -11.8a13.314 13.314 0 0 0 3.698 -8.156c1.086 -14.214 -15.512 -19.4 -23.654 -10.276 -4.02 4.492 -0.16 3.556 -8.8 7.514 -8.374 3.932 -5.124 10.77 -9.026 15.042 -2.56 2.8 -7.904 5.04 -9 10.382 -0.8 3.886 -0.014 5.63 -0.4 8.532 -0.466 3.45 -2.732 6.33 -4.524 10.706 -4.8 11.91 4.692 15.42 3.512 22.6 -0.426 3.106 -3.11 7.702 -0.886 11.822 2.078 3.83 9.234 6.512 11.766 11.87 1.774 3.6 0.9 8.378 7.334 10.648 3.274 1.066 6.742 1.402 10.16 0.984 5 11.882 16.888 16.67 26.426 12.986 9.49 7.344 20.284 8.51 32 7.374 5.656 3.96 11.166 2.644 18.126 1.478 12.678 -2.464 33.2 5.44 45.542 -9.888 8.816 6.654 20.68 0.76 23.67 -10.894a10.206 10.206 0 0 0 11.828 -5.296c2.82 -6.094 0.558 -6.478 12.644 -12.38 7.634 -3.728 4.678 -9.734 4.952 -14.4 0.228 -5.2 6.826 -8.892 8.056 -14.884a24.26 24.26 0 0 0 -1.294 -11.018Zm-182.99 53.972c-3.438 0.152 -9.748 -0.376 -11.274 -4.138 -2.106 -4.976 0.536 -6.874 -11.626 -16.288 -4.1 -3.322 -1.334 -5.704 -0.332 -11.288 1.356 -7.4 -5.54 -12.446 -4.554 -18.224 1.184 -7 6.222 -8.662 6.06 -19.634a7.894 7.894 0 0 1 1.706 -6.304c2.452 -2.738 7.54 -4.79 9.156 -10.15 0.958 -2.952 1 -5.756 2.37 -7.582 1.302 -1.722 3.922 -2.306 6.61 -3.75 4.02 -2.034 4.722 -5.172 6.2 -6.768a9.794 9.794 0 0 1 9.2 -2.826 9.292 9.292 0 0 1 4.154 15.424c-3.176 3.758 -5.746 5.45 -5.694 10.92 0.034 2.776 0.416 4.356 -0.46 6.2a64.024 64.024 0 0 0 -3.6 6.156c-1.288 3.4 0.53 5.936 1.096 7.66 1.516 4.8 -1.136 9.556 -0.36 15.1a13.888 13.888 0 0 0 5.12 8.174c-9.73 5.674 -17.944 23.016 -13.772 37.318Zm7.86 -24.438c9.224 -17.464 22.538 -9.982 21.924 -9.6 -13.258 8.264 -19.2 33.376 -5.146 47.474 -14.828 2.376 -28.472 -15.604 -16.778 -37.874Zm48.94 36.928a6.414 6.414 0 0 0 -0.988 6.492c-20.224 1.156 -32.224 -8.706 -36.03 -22.48 -1.418 -5.672 -3.376 -12.642 7.236 -23.226 6.946 -6.774 16 -6.846 23.554 -12.638 3.036 -2.188 4.978 -5 7.304 -6.444 6.342 -3.972 10.06 5.306 7.666 12.916 -4.074 1.618 -6.08 2.974 -9.818 4.184 -2.932 0.958 -4.926 1.318 -4.928 1.888 -0.018 0.51 2.05 1.162 5.488 0.84 4 -0.348 7.492 -2.17 12.246 -3.824a15.726 15.726 0 0 1 11.984 -0.238c10.638 2.744 11.812 2.692 12.494 4.702 0.278 1.084 0.27 1.982 -1.732 3.308 -6.826 4.284 -11.916 0.542 -20.698 1.046 -6.066 0.426 -22.17 6.118 -24.532 11.688 -1.512 3.378 1.162 7.866 6.708 9.118 -3.6 1.966 -5.76 3.494 -5.516 4.06 0.43 1 7.27 -0.89 23.43 -7.846a32.012 32.012 0 0 1 22.526 -0.552c3.878 1.506 3.4 7 -2.444 8.616 -8.66 2.372 -11.668 -4.166 -29.724 5.234a12.736 12.736 0 0 0 -4.226 3.156Zm81.628 -1.98a10.56 10.56 0 0 1 -6.406 3.368 10.572 10.572 0 0 1 -7.07 -1.554 26.254 26.254 0 0 0 3.846 -16.754c-1.084 -7.498 -1.818 1.94 -3.444 6.888 -8.738 25.492 -33.4 14.884 -48.53 17.8 -5.718 0.982 -11.104 2.144 -14.896 -0.834 -4.676 -3.672 -0.324 -5.376 5.014 -7.762 9.54 -4.638 13.4 -3.212 22.74 -3.096 8.874 0.228 14.58 -0.366 5.932 -2.212 4.704 -2.8 5.6 -9.692 1.822 -13.078a16.96 16.96 0 0 0 -7.848 -3c-11.754 -2.36 -19.434 1.1 -31.026 6.6 -3.478 0.116 -8.096 -0.962 -8.918 -3.744 -0.932 -2.852 9.912 -7.03 12.708 -8.094 7.714 -2.928 10.292 -2.234 17.424 -1.43 14.454 1.728 26.446 1.046 12.904 -1.908 3.8 -2.098 5.558 -5.244 3.428 -9.692a8.754 8.754 0 0 0 -5.938 -3.614c-11.266 -3.046 -13.216 -3.772 -17.056 -3.358 -4.6 -8.968 -1.302 -15.47 2.85 -16.522 5.12 -1.458 9.482 7.722 14.472 12 8.172 7 22.092 4.318 31.572 19.038 3.8 5.936 7.096 19.784 6.092 8.876a30.764 30.764 0 0 0 -11.772 -20.6c7.22 -5.584 17.178 2.822 21.54 10.02 5.642 9.308 8.042 25.532 0.56 32.664v-0.002Zm34.772 -43.18a14.228 14.228 0 0 0 -0.826 8.426c0.748 6.236 -0.814 6 -5.94 8.672 -12.412 6.32 -8.6 11.436 -12.24 14.836a7.546 7.546 0 0 1 -6.82 1.75c1.718 -11.8 -3.158 -27.34 -15.4 -35.358 2.282 -7.354 7.2 -5.956 10.526 -11.292 2.774 -4.174 1.826 -9.218 2.532 -13.528a11.456 11.456 0 0 1 2.532 -5.622c3.962 -5.922 -2.036 -9.712 -1.116 -14.8 0.4 -2.282 1.682 -5.226 0.8 -8.49 -1.538 -5.644 -6.054 -7.724 -4.662 -13.87a9.086 9.086 0 0 1 17.62 -0.616c2.638 7.232 6.926 6.882 9.22 10.144 2.066 2.6 0 8 2.438 12.6 2.072 4 6.304 6.826 6.666 10.118 0.59 5.384 -3.114 5.326 0.218 16.926 3.888 13.202 -1.552 11.428 -5.548 20.104Z" stroke-width="1"></path><path id="Vector_55" fill="#000000" d="M113.374 253.524c5.86 2.21 9.708 6.626 9.12 7.224 -0.538 0.546 -4.414 -2.642 -10.046 -4.766s-10.65 -2.286 -10.692 -3.052c-0.048 -0.842 5.706 -1.634 11.62 0.594Z" stroke-width="1"></path><path id="Vector_56" fill="#000000" d="M103.69 272.236c8.766 0.09 14.776 4.686 14.36 5.328 -0.384 0.682 -6.32 -2.62 -14.386 -2.702 -8.066 -0.082 -14.07 3.094 -14.44 2.4 -0.4 -0.644 5.626 -5.118 14.466 -5.026Z" stroke-width="1"></path><path id="Vector_57" fill="#000000" d="M102.272 294.866c9.276 -1.362 18.574 2.482 18.312 3.264 -0.296 0.89 -8.582 -2.014 -17.926 -0.666 -10.71 1.546 -15.214 7.954 -16.036 7.248 -0.604 -0.512 4.856 -8.26 15.65 -9.846Z" stroke-width="1"></path><path id="Vector_58" fill="#000000" d="M107.478 314.318c-8.38 7.35 -10.556 14.914 -11.452 14.624 -0.686 -0.224 1.336 -9.246 9.72 -16.6 8.164 -7.162 17.578 -8.25 17.722 -7.472 0.178 0.956 -7.566 2.058 -15.99 9.448Z" stroke-width="1"></path></g><g id="Group_20"><path id="Vector_59" fill="#ffffff" d="M347.988 278.612c0.584 1.988 2.488 3.6 2.324 5.676 -0.164 2.076 -2.37 3.532 -2.532 5.6 -0.19 2.45 2.538 4.288 2.682 6.74 0.138 2.35 -2.138 4.3 -2.106 6.654 0.028 1.972 1.682 3.672 1.6 5.642 -0.09 2.29 -2.498 4.17 -2.096 6.426 0.35 0.974 0.766 1.924 1.244 2.844 0.832 2.578 -1.366 5.24 -1.118 7.936 0.186 2.046 1.77 3.896 1.458 5.926 -0.33 2.156 -2.74 3.932 -2.12 6.022 0.298 0.672 0.662 1.31 1.09 1.908 1.844 3.414 -1.8 7.43 -1.356 11.284 0.438 3.73 3.184 4.35 2.2 9.57a4.902 4.902 0 0 1 -3.962 2.258c-0.2 0 -84.892 8.4 -89.856 -3.226 -0.296 -0.694 2.25 -4.552 2.322 -5.304 1.136 -11.942 5.706 -9.142 7.77 -13.09 0.53 -1.488 0.696 -3.08 0.486 -4.644 0 -4.884 3.15 -4.152 4.494 -4.668 3.51 -1.348 1.386 -7.4 4.122 -9.978 1.354 -1.278 3.6 -1.344 4.784 -2.786 1.97 -2.4 -0.52 -6.554 1.458 -8.954 1.27 -1.54 3.77 -1.498 5.132 -2.958 1.95 -2.088 0.44 -5.816 2.1 -8.142 1.532 -2.146 5.2 -2.274 6.126 -4.744 0.552 -1.474 -0.184 -3.146 0.16 -4.682 0.634 -2.83 4.356 -3.7 5.958 -6.12 1.368 -2.066 1 -4.986 2.546 -6.922 1.2 -1.504 3.328 -2.082 4.414 -3.67 1.508 -2.2 0.46 -5.474 2.012 -7.648 1.074 -1.504 3.1 -2.038 4.322 -3.426 2.498 -2.84 1.384 -9.454 10.936 -4.578 7.75 3.954 13.2 3.696 17.888 4.152 4.862 0.474 8.484 2.418 7.718 7.244 -0.508 3.194 -3.188 6.304 -2.2 9.658Z" stroke-width="1"></path><path id="Vector_60" fill="#fdfe1f" d="M295.624 311.534c2.146 -5.186 2.764 -4.988 6.156 -8.26 2.766 -2.668 3.462 -4.332 9.53 -6.554 8.038 -2.944 14.136 -2.6 20.244 3.79 3.73 3.908 7.298 7.844 7.844 11.56a19.404 19.404 0 0 1 -1.6 8.462c-1.12 5.494 -9.986 15.816 -21.468 18.624 -7.258 1.774 -10.262 -0.248 -14.666 -4.824 -9.706 -10.082 -9.53 -14.356 -6.04 -22.798Z" stroke-width="1"></path><path id="Vector_61" fill="#fdfe1f" d="M317.304 273.42c0.486 -1.156 1.456 -1.752 3.89 -3.512 2.554 -1.848 4.37 -2.668 7.586 -0.988 0.892 0.468 1.728 1.034 2.496 1.684a46.444 46.444 0 0 1 4.844 6.49 19.576 19.576 0 0 1 2.728 6.94c0.132 0.492 0.122 1.012 -0.028 1.498 -0.336 0.722 -0.558 1.496 -0.928 2.2 -1.014 1.93 -4.778 5.096 -6.616 5.252 -6.076 0.518 -16.336 -13.944 -13.972 -19.564Z" stroke-width="1"></path><g id="Group_21"><path id="Vector_62" fill="#000000" d="M352.4 306.952c0 -3.042 -2.428 -3.048 -2.418 -6.082 0.01 -3.034 2.428 -3.04 2.422 -6.082 -0.006 -3.042 -2.458 -3.024 -2.482 -6.056 -0.024 -3.032 2.4 -3.066 2.36 -6.106 -0.04 -3.04 -2.49 -3 -2.544 -6.032 -0.074 -3.4 2.71 -2.518 2.174 -7.784 -0.788 -7.756 -4.232 -6.528 -4.022 1.76 0.078 3.03 -2.346 3.086 -2.282 6.108 0.064 3.022 2.5 2.98 2.548 6 0.048 3.02 -2.4 3.062 -2.362 6.084 0.038 3.022 2.466 3 2.484 6.036 0.018 3.036 -2.43 3.036 -2.426 6.06 0.004 3.024 2.432 3.03 2.422 6.062 -0.01 3.032 -2.462 3 -2.488 6.034 -0.026 3.034 2.4 3.054 2.36 6.086 -0.04 3.032 -2.494 2.986 -2.55 6 -0.056 3.014 2.368 3.078 2.298 6.108 -0.07 3.03 -2.526 2.96 -2.612 5.982 -0.086 3.022 2.336 3.104 2.232 6.134 -0.104 3.03 -2.556 2.932 -2.676 5.952 -0.12 3.02 2.308 3.13 2.166 6.158 -0.444 9.428 3.678 9.112 4.114 0.2 0.138 -3.04 -2.284 -3.148 -2.154 -6.18 0.13 -3.032 2.56 -2.936 2.674 -5.976 0.114 -3.04 -2.326 -3.122 -2.23 -6.154 0.096 -3.032 2.528 -2.964 2.6 -6 0.072 -3.036 -2.362 -3.098 -2.294 -6.132 0.068 -3.034 2.494 -2.988 2.548 -6.03 0.054 -3.042 -2.4 -3.072 -2.356 -6.106 0.044 -3.034 2.46 -2.996 2.494 -6.044Z" stroke-width="1"></path><path id="Vector_63" fill="#000000" d="M295.4 297.312c1.778 -2.89 -0.304 -4.166 1.468 -7.058 1.772 -2.892 3.85 -1.624 5.614 -4.524 1.764 -2.9 -0.316 -4.162 1.432 -7.068 1.748 -2.906 3.846 -1.646 5.586 -4.566 1.74 -2.92 -0.35 -4.162 1.376 -7.082s3.83 -1.684 5.544 -4.622c5.05 -8.666 1.716 -11.16 -3.578 -2.086 -1.708 2.926 -3.8 1.694 -5.52 4.6 -1.72 2.906 0.37 4.152 -1.364 7.066 -1.734 2.914 -3.836 1.648 -5.58 4.548 -1.744 2.9 0.338 4.162 -1.422 7.058s-3.842 1.626 -5.61 4.514c-1.768 2.888 0.314 4.166 -1.462 7.052 -1.776 2.886 -3.854 1.61 -5.63 4.496 -1.776 2.886 0.298 4.164 -1.482 7.05s-3.856 1.6 -5.636 4.492c-1.78 2.892 0.298 4.168 -1.48 7.054s-3.854 1.612 -5.628 4.506 0.306 4.166 -1.46 7.06c-1.766 2.894 -3.852 1.626 -5.6 4.534 -1.748 2.908 0.324 4.162 -1.416 7.074s-3.84 1.656 -5.578 4.58c-1.738 2.924 0.362 4.162 -1.352 7.086 -5.134 8.756 -1.69 11.014 3.548 2.082 1.71 -2.916 -0.368 -4.142 1.356 -7.06 1.724 -2.918 3.83 -1.662 5.564 -4.564s-0.34 -4.158 1.4 -7.058c1.74 -2.9 3.838 -1.634 5.6 -4.526 1.762 -2.892 -0.318 -4.162 1.456 -7.05s3.844 -1.616 5.622 -4.502c1.778 -2.886 -0.298 -4.162 1.48 -7.05s3.854 -1.6 5.634 -4.492c1.78 -2.892 -0.296 -4.164 1.486 -7.05s3.846 -1.606 5.632 -4.494Z" stroke-width="1"></path><path id="Vector_64" fill="#000000" d="M337.898 306.506a67.61 67.61 0 0 0 -8.038 -8.4c-16 -12.888 -40.12 9.768 -36.988 24.466 1.272 5.176 6.914 11.22 10.708 14.436 17.49 14.412 45.056 -16.686 34.318 -30.502Zm-3 -0.568c2.744 3.052 4.4 5.228 3.048 11.174 -4.154 -2.746 -3.188 -2.636 -5.8 -5.612a13.992 13.992 0 0 0 -0.148 -8.234c-0.412 -1.05 -1.632 -2.534 2.9 2.672Zm-13.444 -9.704a10.884 10.884 0 0 1 10.13 11.246c-0.322 12.08 -18.484 30.13 -30.908 23.15 -16.408 -9.162 1.906 -37.28 20.778 -34.396Zm-20.474 35.668a13.896 13.896 0 0 0 8.026 1.456c-0.44 0.37 2.284 1.184 5.13 5.4 -5.766 0.242 -8.76 -2.188 -13.156 -6.856Zm14.914 6.678c-2.58 -2.438 -2.23 -1.254 -5.172 -5.562a24.936 24.936 0 0 0 7.05 -3.252c2.25 2 1.866 0.52 6.356 5.672a22.326 22.326 0 0 1 -8.234 3.142Zm9.556 -4c-5.376 -4.024 -2.118 -1.236 -6.312 -5.746a38.964 38.964 0 0 0 7.076 -6.548c3.236 2.584 2.018 0.696 6.4 5.642a34.036 34.036 0 0 1 -7.164 6.654v-0.002Zm8.052 -7.816a25.06 25.06 0 0 1 -6.27 -5.74 29.116 29.116 0 0 0 4.4 -7.842c0.87 0.696 2.106 1.554 3 2.4 1.012 0.942 2.088 2.294 2.88 3.106a27.156 27.156 0 0 1 -4.01 8.078v-0.002Z" stroke-width="1"></path><path id="Vector_65" fill="#000000" d="M299.4 326.728c4.634 6 15.076 0.67 20.6 -4.102 17.622 -15.424 5.496 -32.55 -11.434 -20.48 -2.912 2.1 -4.308 3.308 0.266 0.4 11.41 -7.138 18.726 -2.582 18.692 4.134 0.132 11.28 -16.6 23.498 -24.2 21.4 -3.454 -0.956 -6.19 -5.35 -4.5 -11.844 2.044 -7.706 9.16 -13.572 6.062 -10.942 -5.954 5.048 -10.32 15.38 -5.486 21.434Z" stroke-width="1"></path><path id="Vector_66" fill="#000000" d="M313.414 315.02c1.71 0.388 3.118 1.274 4.258 0.384a67.836 67.836 0 0 0 4.056 -12.078c0.322 -1.692 0.558 -1.444 -0.954 -0.742a55.466 55.466 0 0 0 -9.036 4.836c-1.692 1.112 -1.446 0.826 -1.5 1.264a9.08 9.08 0 0 0 0.63 4.584 3.548 3.548 0 0 0 2.546 1.752Zm-1.858 -5.858a49.244 49.244 0 0 1 8.552 -4.774 72.204 72.204 0 0 1 -3.512 10.048c-0.486 -0.02 -4.036 -0.8 -4.51 -1.766a7.622 7.622 0 0 1 -0.53 -3.508Z" stroke-width="1"></path><path id="Vector_67" fill="#000000" d="M309.344 312.814a9.932 9.932 0 0 0 -0.7 -3.342c-1.646 2.904 -9.026 13.84 -5.614 13.84 2.268 0 11 -3.874 12.512 -5.128 1.35 -1.112 1.376 -0.77 -0.266 -1.182 -4.456 -1.122 -5.706 -0.478 -5.932 -4.188Zm3.852 5.128a49.856 49.856 0 0 1 -9.562 3.964c0.282 -2.072 1.584 -3.954 3.568 -7.526 1.698 -3.056 -0.084 0.576 2.114 2.178 1.178 0.74 2.504 1.212 3.884 1.384h-0.004Z" stroke-width="1"></path><path id="Vector_68" fill="#000000" d="M316.068 274.24c-1.378 7.53 9.274 22.318 18.254 18.348a12.44 12.44 0 0 0 4.688 -5.36c2.254 -5.498 -5.106 -16.756 -10.708 -19.28 -4.902 -2.26 -11.502 2.038 -12.234 6.292Zm10.054 7.216c-1.91 1.86 -0.886 1.736 -4.276 3.586a24.254 24.254 0 0 1 -3.246 -5.716 14.044 14.044 0 0 1 4.522 -2.868 21.98 21.98 0 0 0 3 4.998Zm1 1.256a15.476 15.476 0 0 0 4.016 3.628 15.492 15.492 0 0 1 -1.42 2.114c-0.696 0.748 -1.892 1.4 -2.358 1.856a19.556 19.556 0 0 1 -4.65 -4.174c2.562 -2.95 2.244 -2 4.41 -3.424h0.002Zm3.116 6.228c0.704 -0.756 1.916 -1.416 2.37 -1.87a7.19 7.19 0 0 0 4.356 0.464c-0.494 0.856 -1.16 1.602 -1.956 2.188a5.276 5.276 0 0 1 -6.182 1.318c0.412 -0.738 0.884 -1.44 1.41 -2.1h0.002Zm1.754 -3.482c-2.92 -1.56 -8.026 -7.87 -8.564 -12.2 -0.6 -4 2.34 -5.966 7.352 -1.684 6.7 5.748 11.166 19.07 1.22 13.884h-0.008Zm-9.38 -10.54c-1.954 1.8 -1.742 2.186 -4.4 3.166 -1.104 -4.316 0.782 -6.668 4.838 -8.418a6.404 6.404 0 0 0 -0.44 5.252h0.002Z" stroke-width="1"></path></g><g id="Group_22"><path id="Vector_69" fill="#ffc5f6" d="M362 265.466c6.012 0.65 12.8 0.648 15.98 -4.726a9.42 9.42 0 0 0 -0.354 -9.694c-1.762 -2.866 -12.078 -11.34 -16.946 -12.79 -1.748 -0.52 -1.2 -0.214 -2.39 -1.2 -4.546 -3.754 -49.326 -16.366 -61.8 -9.4a7.3 7.3 0 0 0 -4 7.306c0.458 2.368 3.36 5.622 5.02 7.376a21.646 21.646 0 0 0 9.568 6.678c18.404 7.784 29.088 13.658 54.922 16.45Z" stroke-width="1"></path><path id="Vector_70" fill="#92fcff" d="M323.8 243.214c0.83 0.388 14.138 5.11 15.8 5.556 6.522 1.754 14.386 1.2 16.174 -0.162 1.694 -1.286 4.37 -8.35 3 -15.102 -1.51 -7.4 -5.902 -10.762 -11.56 -13.528a15.924 15.924 0 0 0 -9.702 -2.23c-9.902 0.314 -12.922 3.314 -19.108 12.934a5.474 5.474 0 0 0 -1.234 4.4 10.272 10.272 0 0 0 6.63 8.132Z" stroke-width="1"></path><path id="Vector_71" fill="#000000" d="M379.862 252.24c-2.874 -6.144 -12.938 -12.264 -18.966 -15.342a22.758 22.758 0 0 0 -12.42 -18.566c-5.642 -2.694 -10.482 -2.056 -15.03 -1.306 -4.958 0.816 -9.662 4.498 -12.954 8.186 -9.16 -1.748 -27.436 -1.954 -28.934 7.2 -1.066 5.536 3.8 11.514 8.13 14.85 12.358 9.586 58.472 24.344 73.356 19.104 8.068 -2.846 9.7 -8.834 6.818 -14.126ZM322.4 228.14c11.424 -14.72 28.246 -9.68 33.054 2.21 1.508 3.612 2.75 10.18 1.174 13.758 -3.444 7.726 -29.834 0.16 -35.582 -5.042 -3.138 -3.188 -1.35 -7.336 1.354 -10.926Zm53.466 32.66c-11.454 9.548 -62.922 -8.2 -73.908 -16.494 -3.25 -2.44 -7.638 -7.26 -7 -11.268 1.032 -6.16 17.138 -6.306 23.684 -5.484 -2.502 3.6 -4.19 8.942 -1.644 12.302 3.58 5.89 18.6 10.13 25.748 11.09 10.386 1.328 18.494 -0.382 18.38 -10.892 4.832 2.858 13.368 8.484 15.698 13.618 1.206 2.648 1.252 5.34 -0.962 7.128h0.004Z" stroke-width="1"></path></g></g><g id="Group_23"><path id="Vector_72" fill="#fdfe1f" d="M66.952 141.4c-4.644 13.236 22.2 30.446 29.7 29.834 4.64 -0.38 -3.05 -18.552 -4.234 -21.304 -2.6 -6.062 -6.65 -15.128 -14.224 -15.904a11.064 11.064 0 0 0 -11.242 7.374Z" stroke-width="1"></path><path id="Vector_73" fill="#000000" d="M99.684 164.684c-1.632 -7.08 -7.13 -21.8 -12.62 -27.722a12.472 12.472 0 0 0 -22.08 8.946c0.414 5.014 4.446 10.818 8.104 14.418 6.952 6.82 30.438 22.92 26.596 4.358Zm-3.644 4.528c-5.232 0.11 -16.954 -8.274 -20.456 -11.496 -18.142 -16.76 0.33 -28.082 8.744 -18.254 5.45 6.364 12.248 25.84 11.712 29.75Z" stroke-width="1"></path><path id="Vector_74" fill="#000000" d="M88.858 159.548c-0.748 -2.976 -4.912 -15.6 -9.774 -19.102 -4.8 -3.4 -9.37 -0.31 -6.984 5.62 2.678 6.914 13.05 13.012 16.318 14.08 0.688 0.224 0.488 -0.346 0.44 -0.598Zm-12.564 -10c-3.2 -4.096 -4.304 -9.278 -0.4 -8.48 5.534 1.056 9.06 12.686 12.526 18.682 -2.526 -2.242 -8.42 -5.494 -12.126 -10.206v0.004Z" stroke-width="1"></path><path id="Vector_75" fill="#92fcff" d="M42.6 155.38c2.4 1.56 9.284 -0.48 12.054 -1.748 7.17 -3.288 7.08 3.38 11.296 5.348 1.6 0.74 3.944 0.18 4.32 -1.534 0.512 -2.328 -2.828 -4.652 -1.564 -6.674 16.306 -12.976 16.148 -13.734 18 -11.728 1.56 1.686 2.746 4.4 5.038 4.268 1.91 -0.12 3 -2.442 2.648 -4.32 -0.724 -3.76 -5.354 -6.18 -4.744 -10.172 0.2 -1.308 0.534 -1.672 5.42 -9.892 2.246 -3.78 1.45 -5.094 -0.6 -6.762 -16.136 -13.124 -18.2 -11.248 -22.708 -13.648 -3.924 -2.088 -11.6 -11.924 -29.522 -17.184 -9.212 -2.704 -12.78 0.36 -14.28 6.4 -5.22 20.98 9.6 29.728 6.75 41.57 -1.54 6.37 5.692 24.65 7.892 26.078Z" stroke-width="1"></path><path id="Vector_76" fill="#ffc5f6" d="M46.212 121.6c-0.782 -2.366 -1.928 -5.784 -1.056 -8.122 0.8 -2.16 5.148 -6.7 9.216 -6.856a9.108 9.108 0 0 1 7.318 3.778 17.654 17.654 0 0 1 2.748 10.478c-0.752 2.286 -5.512 6.078 -10.666 5.6 -7.572 -0.724 -9.334 -9.5 -7.56 -4.88Z" stroke-width="1"></path><path id="Vector_77" fill="#000000" d="M65.8 117.176a10.426 10.426 0 0 1 -7.388 10.08 10.648 10.648 0 0 1 -13.532 -7.956c-0.284 -1.584 -0.102 -2.466 0.066 -2.476 0.2 -0.014 0.38 0.82 0.94 2.178 4.126 9.98 17.24 7.28 17.2 -1.82a8.966 8.966 0 0 0 -13.57 -7.542 8.04 8.04 0 0 0 -3.846 4.286c-0.46 1.368 -0.55 2.234 -0.76 2.23 -0.382 0.02 -1.328 -4.866 3.6 -8.146a11.08 11.08 0 0 1 17.29 9.166Z" stroke-width="1"></path><path id="Vector_78" fill="#000000" d="M70.476 122.158c-4.82 14.776 -26.886 13.654 -30.424 -2.212a7.68 7.68 0 0 1 -0.278 -3.38c0.136 -0.016 0.244 1.186 0.894 3.212a15.718 15.718 0 0 0 16.68 11.258A14.172 14.172 0 0 0 65.56 107a15.294 15.294 0 0 0 -19.914 -2.306c-1.8 1.128 -2.616 2.018 -2.72 1.916a7.24 7.24 0 0 1 2.36 -2.44c13.054 -9.926 29.842 3.722 25.19 17.988Z" stroke-width="1"></path><path id="Vector_79" fill="#000000" d="M93.26 109.756A49.112 49.112 0 0 0 70.974 97.2c-7.234 -7.334 -24.76 -20.452 -35 -19.58 -17.28 0.964 -11.09 31.872 -2.534 48.286 -1.526 14.058 4.62 28.492 7.498 30.218 5.2 3.118 12.99 0.438 18.2 -2.516 2.864 3.374 7.088 9.154 10.494 6.328 2.706 -2.222 1.104 -5.682 -0.56 -8.374 5.126 -1.8 14.53 -8.58 16.332 -11.484 2.026 2.278 3.28 3.9 5.4 4.294a3.506 3.506 0 0 0 3.972 -2.912c0.526 -2.426 -1.044 -5.2 -2.57 -7.682 -3.49 -5.672 -3.52 -1.432 1.974 -9.314 5.532 -8.304 3.09 -10.762 -0.92 -14.708ZM29.8 102.112c7.756 -3.468 13.652 -8.5 5.588 -4.842 -1.574 0.754 -3.632 1.558 -5.96 2.504 -2.344 -16.95 3.776 -23.05 20.084 -14.048 -7.914 7.548 -14.616 14.086 -5.662 7.734a83.986 83.986 0 0 0 7.776 -6.524C65.91 95.4 80.7 108.31 83.63 124.674a260.836 260.836 0 0 1 -29.446 20.512C44.314 138.21 33.4 122.21 29.8 102.112Zm12.426 50.32a55.952 55.952 0 0 1 -6.182 -21.936c4.8 7.786 13.106 17.658 21.692 20.938 -4.122 1.78 -13.422 4.726 -15.52 1h0.01Zm26.72 5.038c-1.148 3.038 -4.314 -0.8 -5.882 -2.24 -3 -2.892 -2.816 -2.248 -1.93 -2.84a13.996 13.996 0 0 0 6.434 -0.354c0.7 1.6 1.974 3.846 1.37 5.434h0.01Zm15.114 -24.552c-0.366 4.832 -1.46 6.07 -4.314 8.094 -9.352 6.692 -14.728 10.714 -23.8 5.32 9.44 -4.426 23.374 -15.228 27.98 -19.6 0.246 2.052 0.29 4.124 0.134 6.186Zm4.54 7.916c-3.822 -3.712 -1.832 -0.4 -1.446 -7.722 0.04 -0.774 -0.2 -0.314 1.352 -1.888 7.08 10.976 3.84 13.146 0.094 9.61Zm-1.5 -11.96a50.68 50.68 0 0 0 -12.4 -27.6 56.782 56.782 0 0 1 16.1 10.99c3.018 2.958 6.492 3.834 -3.694 16.612h-0.004Z" stroke-width="1"></path></g><g id="Group_24"><path id="Vector_80" fill="#ffffff" d="M86.8 71.62c-3.58 1.474 -2.65 6.07 -2.932 7.148 -0.518 1.99 -2.464 2.246 -0.666 6.438 5.446 12.694 5.984 6.956 11.026 9.134 2.282 0.986 3.45 4.654 15.628 -0.892 4.28 -1.948 2.306 -3.8 3.334 -5.906 0.812 -1.666 3.288 -2.09 3.94 -3.824 0.704 -1.872 -1.184 -3.72 -1.364 -5.706 -0.218 -2.4 2.83 -5.816 -0.624 -9 -3.274 -3.014 -6 -0.016 -7.718 -1.084 -1.674 -1.042 -0.24 -4.2 -3.464 -5.3a31.504 31.504 0 0 0 -7.786 0.306c-8.74 1.12 -3.974 6.466 -9.374 8.688Z" stroke-width="1"></path><path id="Vector_81" fill="#000000" d="m91.778 65.46 -1.112 -1.272c-1.964 1.632 -1.654 4.852 -3.13 5.6a8.032 8.032 0 0 0 -2.988 1.4 5.118 5.118 0 0 0 -1.728 5.26c0.462 1.75 -3.25 3.856 -0.476 10.038 4.036 9 7.482 8.6 10.236 8.936 2.618 0.316 3.6 3.442 9.954 2.248a33.906 33.906 0 0 0 8.296 -2.9c4.626 -2.498 3.328 -5.332 3.6 -5.972 0.38 -1.638 5.326 -2.512 3.924 -7.146 -0.576 -1.902 -1.916 -3.382 -1.52 -4.916 0.56 -2.168 3.54 -2.24 -0.116 -7.79 -2.666 -4.046 -5.032 -2.498 -7.442 -2.182 -2.062 0.272 -1.386 -0.828 -2.116 -2.328a6.292 6.292 0 0 0 -4.83 -2.91 19.086 19.086 0 0 0 -11.654 2.672c1.944 2.226 -0.4 0.906 5.768 -0.348 2.452 -0.5 6.024 -0.834 8 0.712 1 0.79 0.83 1.27 1.126 2.316 1.046 3.712 6.18 1.516 7.2 1.68 1.236 0.2 2.2 2.174 2.812 3.26 1.548 2.784 -3.362 3.148 -0.374 8.926 1.628 3.148 0.754 3.138 -1.728 5.104 -4.69 3.716 2.72 4.4 -7.6 8.178 -6.566 2.4 -8.244 0.976 -10.654 -0.4 -2.822 -1.6 -4.316 0.174 -6.896 -2.318a18.2 18.2 0 0 1 -4.688 -8.8c0.012 -1.54 0.458 -3.046 1.288 -4.342 0.984 -2.108 -1.32 -2.17 0.72 -5.048 1.238 -1.748 3.182 -0.932 4.174 -2.95 0.976 -1.758 0.776 -3.604 1.954 -4.708Z" stroke-width="1"></path><path id="Vector_82" fill="#000000" d="M87.148 80.478c-1.762 0.432 1.056 5.022 0.486 5.168 -0.146 0.038 -0.92 -1 -1.854 -3.142 -0.968 -3.02 2.178 -5.864 5.304 1.352 1.51 3.486 2.858 5.352 1.6 6.882a1.534 1.534 0 0 1 -2.3 0.2 8.35 8.35 0 0 1 -1.432 -2.33c-1.44 -2.82 1.772 1.432 2.028 1.616 0.538 0.51 1.444 -0.442 0.876 -1.586 -0.412 -0.982 -3.596 -8.438 -4.708 -8.16Z" stroke-width="1"></path><path id="Vector_83" fill="#000000" d="M97.776 67.168c-2.55 0.33 -4.564 0.8 -4.712 0.462 -0.148 -0.338 1.846 -1.416 4.53 -1.764 4.32 -0.56 8.194 0.26 0.18 1.302Z" stroke-width="1"></path><path id="Vector_84" fill="#000000" d="M101.14 77.494c-3.514 2.066 -8.626 2.512 -7.868 -0.558 0.484 -1.956 2.73 -2.642 2.768 -2.326 0.038 0.174 -1.666 0.954 -1.85 2.468 -0.186 2.812 9 -1.3 9.098 -3.376 0.1 -0.74 -1.582 -0.99 -2.42 -0.868 -1.982 0.29 -3.21 1.068 -3.3 0.848 -0.166 -0.328 3.8 -3.03 6.2 -1.338 2.052 1.436 -0.346 3.81 -2.626 5.15Z" stroke-width="1"></path><path id="Vector_85" fill="#000000" d="M107.432 78.554c2.124 0.668 0.458 4.356 0.146 3.612 -0.136 -0.1 0.38 -0.9 0 -2.1 -0.892 -2.066 -3.18 3.69 -2.74 5.034 0.254 0.512 0.552 0.6 0.946 0 0.768 -1.174 1.296 -1.958 1.456 -1.866 0.2 0.118 -0.424 3.114 -1.872 3.368 -3.74 0.378 -0.968 -8.71 2.064 -8.048Z" stroke-width="1"></path><path id="Vector_86" fill="#000000" d="M103.066 92.706a6.652 6.652 0 0 1 -5.52 -0.578c-1.214 -0.566 -1.97 -0.748 -1.986 -0.93 -0.016 -0.182 0.934 -0.318 2.298 0.054a6.92 6.92 0 0 0 4.854 0.19c3.878 -1.148 7 -2.524 7.176 -2.142a15.6 15.6 0 0 1 -6.822 3.406Z" stroke-width="1"></path></g><g id="Group_25"><path id="Vector_87" fill="#ffffff" d="M123.7 84.86c-1.89 2.292 -4.87 5.136 -2.588 7.664 0.78 0.866 2 1.364 2.636 2.38 0.656 1.058 0.466 2.14 2.8 2.484 5.818 0.856 4.946 -1.762 6.464 -3.28 0.6 -0.588 1.44 -0.846 2.044 -1.422 1.252 -1.2 1.38 -3.628 -1.074 -5.866 -1.716 -1.566 -1 -1.512 -1.782 -2.648a7.172 7.172 0 0 0 -4.754 -1.816c-1.896 0 -2.432 0.908 -3.746 2.504Z" stroke-width="1"></path><path id="Vector_88" fill="#000000" d="m125.166 82.5 0.856 1.458a5.664 5.664 0 0 1 3.876 0.022c2.286 0.71 1.484 2.616 2.928 3.942 0.892 0.82 1.526 0.822 1.884 1.66a2.534 2.534 0 0 1 -0.108 2c-0.334 0.492 -1.746 0.76 -2.572 1.858 -0.756 1.178 -0.456 1.79 -1.514 2.252 -1.216 0.53 -4.722 0.6 -5.226 -0.572 -1.224 -2.854 -2.95 -1.644 -3.354 -3.758a11.364 11.364 0 0 1 0.032 -2.472c0.216 -1.176 1.4 -1.112 2.298 -2.374 0.746 -1.058 0.95 -1.954 1.756 -2.554l-0.856 -1.458c-0.764 0.47 -1.4 1.126 -1.844 1.904 -1.676 2.728 -3.256 0.702 -3.74 5.614 -0.46 4.7 2.97 5 3.15 5.572 0.2 0.2 0.176 0.882 0.878 1.574 1.876 1.846 5.934 1.8 8 0.91a4.604 4.604 0 0 0 2.53 -3.11c0.152 -0.36 2.05 -0.762 2.692 -2.136a4.96 4.96 0 0 0 0.144 -4.242c-0.702 -1.616 -2.08 -2 -2.554 -2.416 -0.586 -0.52 -0.8 -3.466 -3.96 -4.188a7.246 7.246 0 0 0 -5.296 0.514Z" stroke-width="1"></path><path id="Vector_89" fill="#000000" d="M124.674 91.872c-0.528 -0.818 -1.016 -1.14 -0.964 -1.324 0.052 -0.184 0.848 -0.088 1.674 0.724 0.786 0.774 1.576 2.082 2.718 2.238 0.968 0.27 1.384 -1.564 2.46 -2.284 1.024 -0.686 1.812 -0.52 1.81 -0.364 0.038 0.2 -0.6 0.4 -1.2 1.064 -0.646 0.704 -2.396 6.292 -6.5 -0.054Z" stroke-width="1"></path></g><g id="Group_26"><path id="Vector_90" fill="#ffffff" d="M62.06 305.586c-2.236 2.714 -5.762 6.08 -3.064 9.072 0.924 1.024 2.376 1.614 3.12 2.816 0.778 1.252 0.552 2.532 3.316 2.94 6.884 1.014 5.852 -2.086 7.65 -3.882 0.696 -0.696 1.706 -1 2.418 -1.684 1.482 -1.416 1.632 -4.294 -1.27 -6.942 -2.032 -1.854 -1.174 -1.8 -2.112 -3.134a8.486 8.486 0 0 0 -5.626 -2.148c-2.242 -0.002 -2.876 1.074 -4.432 2.962Z" stroke-width="1"></path><path id="Vector_91" fill="#000000" d="M77.318 309.49c-0.772 -1.826 -2.494 -2.382 -2.99 -2.824 -0.944 -0.842 -0.8 -5.528 -7.86 -5.182 -4 0.252 -4.946 3.104 -5.86 4.142 -0.7 0.8 -1.422 0.722 -2.388 1.654a8.008 8.008 0 0 0 -0.42 8.12c1.02 1.586 2.698 1.824 2.84 2.28 0.232 0.67 0.58 1.292 1.026 1.842 2.188 2.158 6.938 2.118 9.368 1.064A5.44 5.44 0 0 0 74 316.956c0.178 -0.418 2.4 -0.894 3.15 -2.502a5.8 5.8 0 0 0 0.168 -4.964Zm-2.48 2.324c-0.134 2.262 -1.868 1.43 -3.314 3.352a16.47 16.47 0 0 0 -0.88 1.906c-1.052 1.678 -5.936 1.312 -6.8 0.4 -0.284 -0.366 -0.342 -0.856 -0.788 -1.482 -0.936 -1.248 -2.326 -1.424 -2.912 -2.2a6.46 6.46 0 0 1 -0.108 -4.754c0.304 -0.384 1.59 -0.828 2.4 -1.974 1.44 -2.04 1.4 -4.502 6.6 -2.964 2.714 0.888 1.672 2.99 3.426 4.614 0.984 0.906 2.538 1.232 2.378 3.102Z" stroke-width="1"></path><path id="Vector_92" fill="#000000" d="M66.744 316.78c-2.12 -0.32 -2.98 -2.13 -3.828 -3.444 -0.62 -0.958 -1.19 -1.334 -1.128 -1.548 0.06 -0.214 1 -0.104 1.958 0.846 0.92 0.908 1.846 2.438 3.18 2.618 1.134 0.318 1.62 -1.828 2.88 -2.672 1.2 -0.8 2.12 -0.6 2.118 -0.426 0.044 0.222 -0.69 0.466 -1.4 1.246 -0.836 0.908 -1.394 3.74 -3.78 3.38Z" stroke-width="1"></path></g><g id="Group_27"><g id="Group_28"><path id="Vector_93" fill="#ffffff" d="M271.034 76.454c-5.976 2.476 -4.55 10.566 -4.988 12.26 -0.88 3.412 -4.2 3.854 -1.134 11.046 1.082 2.54 5.178 11.754 7.568 13.524 3.094 2.288 7.662 0.6 11.19 2.144 3.88 1.692 5.874 7.982 26.584 -1.528 7.29 -3.348 3.914 -6.492 5.674 -10.132 1.382 -2.86 5.6 -3.586 6.702 -6.562 1.2 -3.21 -2.014 -6.378 -2.32 -9.8 -0.372 -4.126 4.814 -9.976 -1.064 -15.436 -5.674 -5.27 -10.102 0.044 -13.13 -1.858 -2.828 -1.778 -0.438 -7.222 -5.89 -9.094 -2.32 -0.8 -10.8 0.2 -13.244 0.524 -14.516 1.886 -7.05 11.226 -15.948 14.912Z" stroke-width="1"></path><path id="Vector_94" fill="#000000" d="M324.2 93.616c-1 -3.308 -3.232 -5.664 -2.556 -8.276 0.442 -1.718 2.848 -3.242 2.816 -6.318 0.04 -2.482 -3.376 -7.826 -5.346 -9.588 -5.356 -4.848 -11.544 1.6 -12.856 -1.8a8.216 8.216 0 0 0 -3.246 -5.642c-4.352 -3.322 -11.056 -2.67 -16.4 -1.45 -6.156 1.51 -10.144 3.022 -11.706 8.092 -3.104 9.656 -4.27 2 -9.4 9.706a7.266 7.266 0 0 0 -1.124 6.524c0.788 3.142 -5.424 6.048 -0.8 16.9 8.072 18.446 15.718 13.6 19.62 15.822 5.164 2.946 8.786 5.554 21.466 1.026 6.252 -2.348 13.17 -4.94 12.87 -11.69 -0.104 -4.882 9.248 -4.712 6.662 -13.306Zm-6.654 -9.416c-1.6 5.536 3.68 10.056 2.58 12.7 -0.888 3 -7.112 3.046 -7 10.062 0.04 2.374 -1.528 3.714 -3.7 4.86a55.246 55.246 0 0 1 -12.654 4.442c-9.244 1.8 -9.522 -3.166 -15.458 -3.716 -4 -0.428 -7.58 1 -14.078 -12.4 -3.988 -8.854 1.242 -10.432 1 -14.488 -0.136 -2.588 -1.704 -2.8 0.882 -6.42 1.762 -2.506 3.912 -1.548 6.064 -3.666a13.9 13.9 0 0 0 2.6 -6.06c0.9 -3.262 2.02 -4.302 9.516 -5.868 4.054 -0.8 10.236 -1.422 13.454 1.2 0.502 0.426 0.938 0.92 1.294 1.474 0.4 0.696 0.314 7.12 7.4 6.08 4.436 -0.678 5.88 -2.252 8.55 2.048 4.528 7.12 0.956 4.478 -0.45 9.752Z" stroke-width="1"></path><path id="Vector_95" fill="#000000" d="M276.278 98.234c-0.716 -1.652 -3.4 -6.872 -4.6 -6.576 -2.848 0.7 1.616 8.34 0.818 8.702 -0.34 0.154 -6.528 -8.486 -1.47 -10.534 2.97 -1.2 6 4.6 7.278 7.518 2.636 6.074 4.8 9.036 2.692 11.588a2.584 2.584 0 0 1 -3.872 0.352 17.566 17.566 0 0 1 -2.41 -3.922c-2.31 -4.692 2.904 2.352 3.412 2.722 0.906 0.858 2.434 -0.748 1.474 -2.672 -0.522 -1.264 -0.416 -0.464 -3.322 -7.178Z" stroke-width="1"></path><path id="Vector_96" fill="#000000" d="M289.57 69.246c-4.292 0.556 -7.684 1.338 -7.932 0.78 -0.248 -0.558 3.106 -2.384 7.626 -2.97 7.276 -0.944 13.794 0.438 0.306 2.19Z" stroke-width="1"></path><path id="Vector_97" fill="#000000" d="M295.236 86.634c-3.048 1.8 -8.42 3.704 -11.546 2.43a2.932 2.932 0 0 1 -1.704 -3.372c0.786 -3.188 4.588 -4.512 4.66 -3.916 0.052 0.252 -2.81 1.668 -3.114 4.156 -0.364 5.52 20.84 -4.982 13.824 -6.974a10.914 10.914 0 0 0 -6.546 0.912c-2.11 0.72 -2.08 0.354 -0.386 -0.772 8.056 -5.352 16.256 0.812 4.812 7.536Z" stroke-width="1"></path><path id="Vector_98" fill="#000000" d="M300.054 94.328c2.474 -7.526 6.94 -7 7.518 -3.76 0.458 2.554 -1.2 4.284 -1.5 3.93 -0.224 -0.228 0.658 -1.578 -0.012 -3.536 -0.858 -2.506 -3 1.228 -3.908 4.058 -1.708 5.362 -0.048 5.854 0.9 4.4 1.294 -1.976 2.18 -3.3 2.45 -3.14 0.27 0.156 -0.12 1.574 -1.092 3.914 -1.712 3.382 -7.01 2.234 -4.356 -5.866Z" stroke-width="1"></path><path id="Vector_99" fill="#000000" d="M298.478 112.246a11.214 11.214 0 0 1 -9.292 -0.974c-2.046 -0.954 -3.322 -1.258 -3.346 -1.566 -0.024 -0.308 1.57 -0.536 3.868 0.092a11.646 11.646 0 0 0 8.172 0.318c4.972 -1.43 11.774 -4.296 12.082 -3.6 0.274 0.606 -5.962 4.14 -11.484 5.73Z" stroke-width="1"></path></g><path id="Vector_100" fill="#fdfe1f" d="M291.274 62.058c1.288 1.372 -0.494 3.588 2.706 4.112 8.858 1.448 8.428 5 9.18 9.93 2.088 13.658 15.094 9.812 9.584 22.322 -1.838 4.17 -5.892 7.124 -4.922 11 1.95 7.8 18.876 -0.4 23.244 -7.014 2.2 -3.34 2.4 -7.816 5.038 -10.83 6.524 -7.472 22.638 -0.542 24.244 -12.102a5.512 5.512 0 0 0 -0.956 -4.038c-1.6 5.956 -9.068 7.75 -14.586 6.818 -8.682 -1.466 -9.6 -8.264 -4.298 -11.8 4.876 -3.25 16.982 -3.746 25.786 -9.848a52.87 52.87 0 0 0 5.688 -5.964 21.2 21.2 0 0 0 3.4 -7.132c4.308 -12.9 8.96 -11.646 10.054 -13.424 0.556 -0.904 -10.182 -2.654 -18.106 7.218 -2.876 3.584 -4.154 8.11 -7.712 11.016 -4.634 3.782 -12.618 4.038 -18.152 6.306 -5.328 2.184 -12.84 9.518 -15.73 6.278 -4.2 -2.138 1.4 -10.534 4.218 -13.2 6.144 -5.824 13.668 -2.624 19.622 -5.274 3.538 -1.574 7.316 -5.36 7.556 -9.224 -3.868 4.044 -6.422 5.288 -11.4 4.936a26.388 26.388 0 0 1 -7.19 -1.33 21.42 21.42 0 0 0 -11.366 0.4c-2.328 1.118 -3.784 3.506 -5.938 4.934a59.72 59.72 0 0 1 -11.918 5.2c-7.376 1.442 -5.416 -1.55 -18.82 5.122 -1.524 0.758 -4.572 2 -5 3.902 -0.264 1.146 1.154 1.514 2.026 1.464 1.17 -0.056 2.782 -0.808 3.748 0.222Z" stroke-width="1"></path><path id="Vector_101" fill="#000000" d="M381.352 32.752c-15.2 -0.94 -16.228 14.74 -24.2 19.516 -4.462 2.76 -10.75 2.27 -16.514 4.692 -5.47 2.274 -8 5.348 -10.622 6.494 -2.668 1.228 -4.47 -0.098 -4.456 -1.62 0.05 -1.824 2.332 -4.976 3.496 -6.588 8.86 -11.85 19.568 -0.214 27.188 -13.972a12.86 12.86 0 0 0 1.588 -4.494c0.03 -0.8 -0.766 0.08 -1.38 0.674 -8.82 8.164 -15.534 1.014 -25 1.642 -5.646 0.316 -8.142 3.914 -11.388 6.346 -9.82 7.356 -22.114 3.178 -33.42 11.81a3.776 3.776 0 0 0 -1.728 4.614c1.102 2.038 3.24 1.57 4.87 1.286 2.134 -0.374 0.57 2.8 3.442 4.37 4.79 2.816 7.518 -2.124 8.304 7.696a16.528 16.528 0 0 0 8.218 13.288c7.874 6.492 -2.528 11.856 -3.62 19.66 -0.62 4.434 3.6 7.94 11.476 4.878 20.232 -8.234 12.708 -13.8 20.54 -20.8 6.186 -5.532 15.382 -2.03 21.11 -8.8a6.344 6.344 0 0 0 0.164 -8.36c0.138 0.72 0.314 1.43 0.528 2.132 1.176 5.244 -4.866 8.44 -10.258 9.102 -4.114 0.6 -8.702 0.508 -13.052 4.158 -5.242 4.166 -4.868 9.732 -8.736 13.518 -4.382 4.538 -22.378 12.326 -18.056 2.56 2.966 -6.708 12.26 -13.4 -0.314 -22.272 -7.428 -5.34 -2.616 -13.298 -7.434 -17.4 -2.486 -2.224 -5.548 -1.096 -7.2 -2.12 -1.418 -1.028 0.142 -5.726 -6.696 -4.562 0 0 -0.044 0 -0.056 -0.018a0.068 0.068 0 0 1 0 -0.078c6.028 -6.026 18.814 -5.816 27.032 -9.014 6.696 -2.686 8.234 -5.542 11.382 -7.878 8.8 -6.526 21.554 6.1 30.128 -5.148a17.686 17.686 0 0 1 -5.254 6.35c-7.966 5.904 -16.118 -3.57 -26.452 11.316a12.692 12.692 0 0 0 -2.6 5.938 5.414 5.414 0 0 0 5.214 5.512c6.11 0.524 8 -6.43 19.782 -8.784 9.752 -1.974 13.13 -2.688 18.4 -11.902 4.34 -7.748 8.078 -13.426 19.43 -12.334a19.936 19.936 0 0 0 -6.852 4.188c-3.57 3.368 -3.57 7.856 -5.632 12.106a23.63 23.63 0 0 1 -11.4 11.286c-8.23 3.754 -24.2 4.416 -26.062 12.974 -0.618 2.954 0.944 6.2 5.542 7.634 4.522 1.156 9.274 1.054 13.742 -0.296 5.178 -2.04 5.284 -6.888 4.722 -6.882 -0.616 -0.076 -0.302 6.082 -10.9 5.62 -11.296 -0.51 -12 -5.104 -8.146 -8.182 6.868 -5.664 20.782 -3.36 30.26 -13.706 4.722 -5.14 5.568 -9.562 6.812 -14.4 1.684 -6.566 8 -9.088 8.474 -10.292 1.058 -0.01 -1.028 -1.21 -4.416 -1.458Z" stroke-width="1"></path></g><g id="Group_29"><path id="Vector_102" fill="#ffffff" d="M75.236 264.874c3.456 1.432 2.55 5.872 2.828 6.952 0.5 1.934 2.378 2.184 0.644 6.262 -5.256 12.352 -5.764 6.762 -10.636 8.886 -2.2 0.958 -3.332 4.526 -15.076 -0.866 -4.134 -1.9 -2.22 -3.682 -3.218 -5.746 -0.782 -1.622 -3.17 -2.034 -3.8 -3.722 -0.68 -1.82 1.142 -3.616 1.316 -5.55 0.21 -2.34 -2.73 -5.658 0.6 -8.754 3.216 -2.988 5.728 0.026 7.444 -1.052 1.6 -1 0.248 -4.096 3.34 -5.158 1.2 -0.412 11.024 -0.33 12.682 2.878 1.35 2.596 0.818 4.596 3.876 5.87Z" stroke-width="1"></path><g id="Group_30"><path id="Vector_103" fill="#000000" d="M79.23 271.688c-0.744 -1.508 -0.888 -1.32 -0.66 -2.23a4.02 4.02 0 0 0 -0.632 -3.676c-1.93 -2.822 -2.288 -1.858 -3.842 -2.64 -1.846 -0.926 -0.296 -4.662 -5.44 -6.6 -4.42 -1.6 -10.66 -2.51 -13.17 1.524 -0.69 1.414 -0.048 2.468 -2 2.2 -1.882 -0.248 -4.42 -1.922 -7.06 2.068 -3.52 5.368 -0.54 5.532 -0.11 7.4 0.694 2.43 -4.162 5.844 0.06 9.37 0.96 0.78 2.052 1.352 2.22 2.074a5.396 5.396 0 0 0 3.4 5.668c11.6 6.178 15.066 0.89 17.318 0.618a9.24 9.24 0 0 0 4.04 -0.908c3.5 -2.108 8.304 -9.956 5.876 -14.868ZM77.8 275.2c-0.28 2.77 -3.684 9.27 -6.952 9.704a9.116 9.116 0 0 0 -4.04 0.854c-0.94 0.676 -1.992 1.176 -3.108 1.478 -2.988 0.6 -12 -2.1 -12.554 -4.634a4.732 4.732 0 0 0 -1.65 -4.226c-2.348 -1.828 -3.184 -1.846 -1.64 -4.844 2.824 -5.434 -1.824 -5.864 -0.352 -8.468 0.566 -1.032 1.494 -2.902 2.666 -3.094 1.298 -0.21 3.26 1.082 5.184 0.232 2.44 -1.078 1.092 -2.752 2.71 -4.022 2.768 -2.172 10.612 -0.37 12 0.862 1.108 0.982 0.944 2.816 1.872 4.452a4.224 4.224 0 0 0 2.756 1.838 4 4 0 0 1 2 2.506c0.124 1.042 -0.668 1.982 -0.122 3.244 0.8 1.224 1.228 2.654 1.23 4.118Z" stroke-width="1"></path><path id="Vector_104" fill="#000000" d="M74.832 272.258c-2.302 -0.976 -5.032 6.024 -5.908 8.386 -0.8 2.282 1.254 3.738 2.472 2.578 0.646 -0.634 2.75 -4.62 0.954 -2.474 -0.46 0.638 -0.968 1.238 -1.52 1.8 -0.51 0.484 -1.37 -0.42 -0.83 -1.504 0.22 -0.536 0.634 -1.212 0.938 -1.91a18.548 18.548 0 0 1 3.13 -5.686c0.712 -0.568 1.066 0.554 0.846 1.522 -0.6 1.878 -1.106 3.176 -0.91 3.226 0.396 0.1 3.456 -4.924 0.828 -5.938Z" stroke-width="1"></path><path id="Vector_105" fill="#000000" d="M64.38 260.66c2.42 0.308 4.334 0.758 4.47 0.44 0.136 -0.318 -1.75 -1.348 -4.3 -1.674 -3.86 -0.51 -7.95 0.204 -0.17 1.234Z" stroke-width="1"></path><path id="Vector_106" fill="#000000" d="M66.964 267.89c-0.556 -0.28 -0.926 -0.246 -0.936 -0.168 -0.01 0.078 0.264 0.214 0.666 0.572 0.856 0.78 1.64 2.25 0.6 2.58 -2.4 0.82 -10.744 -3.8 -7.308 -4.74 1.978 -0.588 4.452 1.034 4.584 0.708a5.798 5.798 0 0 0 -4.836 -1.712c-1.256 0.286 -1.74 1.026 -1.74 1.706 0 2.8 6.958 6.118 9.692 5 1.44 -0.584 1.46 -2.686 -0.722 -3.946Z" stroke-width="1"></path><path id="Vector_107" fill="#000000" d="M55.08 274.892c0.128 -0.096 -0.36 -0.854 0 -2 0.832 -1.952 3.012 3.514 2.6 4.778 -0.242 0.486 -0.524 0.564 -0.9 0 -0.726 -1.114 -1.228 -1.86 -1.38 -1.772 -0.2 0.116 0.416 2.954 1.776 3.2 2.848 0.296 1.7 -5.112 -0.28 -7.114 -1.282 -1.014 -2.416 -0.558 -2.662 0.698 -0.234 1.662 0.776 2.378 0.846 2.21Z" stroke-width="1"></path><path id="Vector_108" fill="#000000" d="M64.304 283.514a6.6 6.6 0 0 1 -4.6 0.18c-3.668 -1.124 -6.654 -2.4 -6.8 -2.034a15.338 15.338 0 0 0 6.472 3.232 6.34 6.34 0 0 0 5.238 -0.548c1.152 -0.538 1.874 -0.708 1.884 -0.882 0.01 -0.174 -0.9 -0.302 -2.194 0.052Z" stroke-width="1"></path></g><path id="Vector_109" fill="#fdfe1f" d="M63.758 256.71c-0.73 0.778 0.28 2.034 -1.534 2.332 -5.022 0.822 -4.78 2.84 -5.2 5.63 -1.184 7.746 -8.56 5.564 -5.434 12.658 0.286 0.674 0.652 1.312 1.09 1.898 4.338 4.956 0.306 9.08 -8.066 3.4 -6.08 -4.124 -3.54 -6.048 -6.27 -9.174 -2.556 -2.926 -7.136 -1.93 -10.532 -3.088a4.344 4.344 0 0 1 -3.208 -4.214c0.004 -0.636 0.148 -1.262 0.42 -1.836 0.88 3.298 5.28 4.376 8.386 3.854 4.92 -0.832 5.44 -4.686 2.436 -6.69 -2.764 -1.842 -9.628 -2.122 -14.622 -5.584A29.9 29.9 0 0 1 18 252.512a12.086 12.086 0 0 1 -1.932 -4.044c-2.442 -7.314 -5.08 -6.6 -5.7 -7.612 -0.316 -0.512 5.774 -1.504 10.266 4.094 1.63 2.032 2.356 4.6 4.374 6.246 2.628 2.144 7.154 2.29 10.292 3.576 3.02 1.238 7.28 5.4 8.92 3.56 2.38 -1.212 -0.8 -5.972 -2.4 -7.482 -3.484 -3.304 -7.75 -1.488 -11.126 -3a7.148 7.148 0 0 1 -4.284 -5.23c2.116 2.212 4.448 4.05 10.54 2.046a12.116 12.116 0 0 1 6.444 0.22c1.32 0.634 2.148 1.988 3.368 2.8a33.86 33.86 0 0 0 6.758 2.95c4.18 0.818 3.072 -0.88 10.672 2.904 0.864 0.43 2.6 1.136 2.84 2.214 0.148 0.648 -0.654 0.858 -1.148 0.83 -0.664 -0.032 -1.58 -0.458 -2.126 0.126Z" stroke-width="1"></path><path id="Vector_110" fill="#000000" d="M66.716 254.514c-3.466 -3.984 -11.812 -3.886 -16.152 -5.484 -6.12 -2.324 -5.348 -6.458 -12.988 -5.048 -2.896 0.6 -6.308 1.776 -8.902 0.32 -1.612 -0.908 -2.384 -2.244 -2.584 -2.076 -0.356 0 0.2 3.078 2.76 5.28 2.6 2.292 6.588 1.614 9.084 2.248 3.244 0.84 7.068 6.284 5.8 7.442 -1.364 1.246 -3.382 -0.674 -4.864 -1.72 -5.11 -3.722 -9.18 -2.364 -12.544 -4.442 -2.924 -1.748 -3.974 -5.682 -6.576 -8.272 -4.084 -4.072 -10 -2.444 -9.752 -1.904 0.156 0.524 3.946 2.144 4.888 5.86a15.66 15.66 0 0 0 3.84 8.152c5.914 6.468 17.028 4.736 18.166 9.244 0.84 3.27 -8.466 4.042 -10.728 1.6 -0.946 -1.018 -0.93 -1.936 -1.108 -1.71a3.516 3.516 0 0 0 0.13 4.69c3.216 3.8 8.42 1.846 11.898 4.958 4.416 3.948 0.2 7.11 11.576 11.726 2.298 0.896 4.7 1.218 6.126 -0.814 1.466 -2.812 -1.928 -6.1 -3.016 -8.666 -1.068 -2.366 0.55 -3.854 2.516 -5.234 4.62 -3.306 2.68 -8.482 4.318 -9.916 0.784 -0.688 2.38 -0.19 3.8 -1.024 1.094 -0.6 1.114 -1.8 1.292 -2.188 0.412 -0.576 0.544 -0.138 1.972 -0.136a1.642 1.642 0 0 0 1.506 -1.086 1.65 1.65 0 0 0 -0.46 -1.8Zm-1.48 1.084c-3.84 -0.65 -3 2 -3.772 2.57 -0.952 0.59 -2.656 -0.064 -4.062 1.2 -1.94 1.654 -1.156 4.582 -1.884 6.434 -1.432 4.302 -4.6 3.676 -5.688 7.232 -1.31 4.232 4.668 8.726 3.46 10.66 -1.362 2.178 -8.66 -1.574 -10.432 -3.4 -2.128 -2.082 -2.032 -5.32 -4.922 -7.616 -2.424 -2.036 -4.854 -1.978 -7.356 -2.344 -3.03 -0.374 -6.44 -2.166 -5.78 -5.13 0.304 -1.374 -0.124 -0.3 0.76 1.02 2.17 3.188 10.024 2.936 12.288 0.52 1.668 -1.858 1.374 -5.03 -3.356 -7.068 -3.342 -1.432 -7.314 -1.848 -10.522 -3.308 -9.828 -4.472 -4.856 -12.86 -13.434 -15.47 10.278 -0.874 9.288 8.166 14.818 11.712 3.86 2.472 7.44 1 12.372 4.518 1.33 0.914 3.124 2.624 5.224 2.446a3.122 3.122 0 0 0 3 -3.186 10 10 0 0 0 -2.43 -4.694c-3.688 -4.718 -7.506 -3.546 -10.362 -3.892a8.208 8.208 0 0 1 -6.628 -4.8c4.918 6.628 12.088 -0.672 17.078 3.032a20.418 20.418 0 0 0 6.414 4.44c4.128 1.6 8.828 1.512 12.64 3.364 0.82 0.362 2.84 1.68 2.574 1.762v-0.002Z" stroke-width="1"></path></g><g id="Group_31"><path id="Vector_111" fill="#ffffff" d="M83.76 175.862a38.024 38.024 0 1 0 -0.002 76.046 38.024 38.024 0 0 0 0.004 -76.046Z" stroke-width="1"></path><path id="Vector_112" fill="#000000" d="M83.76 253.916a40.034 40.034 0 0 1 -7.8 -79.296 40.03 40.03 0 0 1 47.84 39.264 40.074 40.074 0 0 1 -40.04 40.032Zm0 -76.314a36.284 36.284 0 1 0 36.284 36.282A36.324 36.324 0 0 0 83.76 177.6v0.002Z" stroke-width="1"></path><path id="Vector_113" fill="#ffc5f6" d="M63.618 206.096c1.084 3.862 2.832 15.6 7.41 17.826a4.17 4.17 0 0 0 4.954 -1.858c0.92 -1.696 1.54 -3.538 1.836 -5.444 0.46 -1.844 2.964 -9.282 4.812 -9 2.312 0.346 8.224 12.258 9.782 15.8 0.368 0.836 2.314 1.492 -0.076 2.502 -5.082 2.146 -4.66 5 -0.364 7.072 8.064 3.886 12.35 7.84 12.864 -0.858 0.428 -7.284 2.6 -10.022 0.628 -11.112a6.19 6.19 0 0 0 -3.708 0.096c-1.242 0.386 -1.8 0.568 -2.548 -0.456 -5.754 -7.772 -10.958 -26.42 -15.544 -27.026 -4.246 -0.564 -6.782 11 -11.702 16.232 -3.926 -9.968 -5.344 -15.772 -9.126 -15.584 -2.94 0.14 0.076 9.296 0.782 11.81Z" stroke-width="1"></path><path id="Vector_114" fill="#000000" d="M99.672 223.878c4.884 -2.232 4.6 -2.148 5.01 -2.148a1.44 1.44 0 0 1 1.132 0.56 1.436 1.436 0 0 1 0.252 1.24l-3.082 11.774a1.432 1.432 0 0 1 -2.052 0.908l-10.58 -5.532a1.426 1.426 0 0 1 -0.766 -1.308 1.428 1.428 0 0 1 0.836 -1.266l4.836 -2.212c-13.562 -23.692 -11.102 -27.962 -19.366 -6.248 -0.67 1.762 -1.724 3.786 -3.6 3.786 -4.248 0 -5.848 -10.688 -7.06 -15.296 -0.612 -2.32 -1.47 -4.566 -2 -6.91 -0.814 -3.534 -0.89 -8 1.76 -4.954 3.516 4.052 5.368 19.89 7.478 15.848 2.2 -4.21 4.7 -8.316 6.96 -12.546 5.97 -11.196 4.69 -2.774 20.24 24.304Zm-16.154 -31.314c-3.162 0 -4.8 3.69 -11.574 16.036a143.898 143.898 0 0 1 -2.152 -6.764c-3.722 -12.704 -11.084 -10.752 -8.64 -0.134 0.586 2.532 1.4 4.6 2.026 6.972 1.62 6.164 2.988 17.06 9.286 16.868 5.888 -0.182 5.6 -9.276 10.564 -17.222 3.1 4.114 5.478 9.83 9.258 16.61 -2.47 1.128 -4.742 1.686 -4.814 4.384 -0.08 2.918 1.618 3.102 12.48 8.772a3.546 3.546 0 0 0 5.076 -2.246c3.146 -12 3.888 -13 2.46 -14.838 -2 -2.6 -4.64 -0.9 -6.936 0.15 -9.79 -17.424 -12.786 -28.588 -17.034 -28.588Z" stroke-width="1"></path></g><g id="Group_32"><path id="Vector_115" fill="#fdfe1f" d="M382.442 75.836a7.028 7.028 0 0 0 -4.542 0.23c-0.702 0.4 -0.568 0.43 -3.232 5.856 -3.9 7.95 -5.012 6.95 -7.538 10.474 -1.142 1.6 -1.85 3.47 -3.03 5.036 -3.068 4.074 -7.052 7.542 -10.488 11.31a83.864 83.864 0 0 1 -8.926 8.6c-3.43 3.314 -6.6 8.764 -15.688 14.696a24.52 24.52 0 0 0 -3.14 2.51c-27.746 25.8 -26.298 21.88 -29.48 24.644 -24.262 21.064 -37.906 27.37 -43.83 33.316 -3.626 0.92 -4.946 3.734 -18.482 13.026 -15.8 10.854 -19.212 12.4 -22.438 14.742 -4.782 3.476 -1.786 1.688 -8.322 5 -7.506 3.8 -13.684 9.986 -21.452 13.212 -0.506 0.21 -1.09 0.492 -1.186 1.03a61.872 61.872 0 0 0 -11.626 6.736c-16 10.336 -44.52 24.264 -46.58 26.136 -2.13 1.938 -20.314 8.534 -25.784 12a12.978 12.978 0 0 1 -2.044 0.6c-9.66 3.928 -35.374 13.98 -46.152 14.21a3.268 3.268 0 0 0 -1.98 3.462c0.258 2.828 2.96 4.054 3.69 5.08 0.852 1.2 0.22 1.028 2.4 0.8 3.098 -0.338 36.092 -8.712 58.228 -20.668a162.048 162.048 0 0 1 15.668 -7.05c0.2 -0.102 61.1 -32.8 66.478 -37.302a84.296 84.296 0 0 1 11.4 -7.282c10.2 -6.056 19.51 -14.144 29.786 -20.074 26.662 -15.4 103.8 -76.836 117.688 -92.64 9.4 -10.7 7.772 -5.572 26.432 -29.23 0.986 -1.252 1.4 -2.844 2.308 -4.16a87.84 87.84 0 0 0 5.19 -8.748 5.264 5.264 0 0 0 -3.328 -5.552Z" stroke-width="1"></path><g id="Group_33"><path id="Vector_116" fill="#000000" d="M380.562 73.37h-2.736C359.86 129.79 109.906 298.088 44.8 298.088c-0.78 0 -0.586 -0.5 -0.586 2.62 65.372 1.238 320.686 -170.932 336.348 -227.338Z" stroke-width="1"></path><path id="Vector_117" fill="#000000" d="M387.326 73.37c-8.686 43.816 -175.38 168.818 -286.53 217.4 -57.288 25.044 -56.6 11.48 -56.6 19.134 71.024 0.982 335.298 -178.328 345.488 -236.572l-2.358 0.038Z" stroke-width="1"></path></g></g><g id="Group_34"><path id="Vector_118" fill="#ffffff" d="M342.178 112c0.76 1.2 0.496 2.188 2.138 3.04 1.312 0.68 3.574 -0.492 4.482 -0.426 1.282 0.092 1.92 1.32 3.634 3.954 0.966 1.48 0.446 1.768 -0.304 3.112 -1.612 2.886 0.814 6.212 0.876 7.296 -0.144 0.734 -0.44 1.428 -0.87 2.038a5.316 5.316 0 0 1 -1.63 1.502c-1.662 0.69 -1.466 0 -2.254 2.896 -0.858 3.156 -4.332 4.182 -7.31 4.91 -6.34 1.55 -5.428 1.454 -7.862 -0.13 -3.6 -2.338 -8.094 -0.782 -10.182 -6.106 -1.864 -4.756 -2.4 -5.774 -2.26 -7.054 0.18 -1.722 1.744 -3.124 1.706 -4.854a11.82 11.82 0 0 1 -0.226 -2.298c0.374 -2.102 3.242 -2.168 4.366 -3.8 0.734 -1.058 0.772 -3.054 2.542 -4.626 2.774 -2.46 8.534 -1.51 8.736 -1.538A4.55 4.55 0 0 1 342.178 112Z" stroke-width="1"></path><path id="Vector_119" fill="#000000" d="M353.686 127.4c-0.54 -1.77 -1.758 -3.094 -1.4 -4.506 0.51 -1.976 3.24 -2.036 -0.106 -7.138 -2.456 -3.712 -4.6 -2.29 -6.82 -2 -1.89 0.248 -1.268 -0.76 -1.938 -2.136 -2.428 -3.89 -8.474 -3 -12.722 -1.47 -5.26 1.984 -3.24 5.372 -5.252 6.38 -1.6 0.8 -1.862 -0.148 -3.71 2.548a3.868 3.868 0 0 0 -0.612 3.55c0.218 0.868 0.118 0.626 -0.636 2.154 -2.47 5 2.584 12.496 5.676 14.358a8.906 8.906 0 0 0 3.904 0.874c2.264 0.274 5.454 5.4 16.722 -0.6a5.132 5.132 0 0 0 3.29 -5.472c0.368 -1.522 4.886 -2.284 3.604 -6.542Zm-3.62 -5.126c-0.842 2.904 1.98 5.536 1.4 6.912 -0.28 1.214 -3.266 1.886 -3.724 4.26 -0.276 1.426 0.566 2.458 -2.098 3.862 -2.8 1.516 -8.568 3.67 -11.566 2a9.116 9.116 0 0 0 -3.732 -1.6c-2.18 -0.234 -4.12 0.554 -7.662 -6.748 -2.434 -5.4 1.514 -6 0.36 -8.83 -0.22 -0.8 -0.328 -1.152 0.662 -2.55 1.15 -1.622 2.896 -0.812 3.826 -2.704 1.51 -2.658 0.044 -3.982 3.706 -5.164a17.34 17.34 0 0 1 7.468 -0.87c4.086 0.694 2.46 2.6 3.842 4.098a3.46 3.46 0 0 0 3.114 0.918c2.412 -0.372 3.2 -1.226 4.652 1.114 2.468 3.88 0.526 2.404 -0.248 5.306v-0.004Z" stroke-width="1"></path><path id="Vector_120" fill="#000000" d="M325.1 126.336c-1.556 0.384 0.908 4.616 0.446 4.736 -0.134 0.036 -0.844 -0.922 -1.698 -2.88 -0.884 -2.746 1.982 -5.386 4.858 1.24 1.382 3.182 2.622 4.902 1.464 6.306a1.392 1.392 0 0 1 -1.598 0.51 1.406 1.406 0 0 1 -0.508 -0.31 7.15 7.15 0 0 1 -1.312 -2.136c-1.296 -2.542 1.512 1.232 1.856 1.482 0.496 0.468 1.326 -0.4 0.8 -1.452 -0.336 -0.832 -3.282 -7.748 -4.308 -7.496Z" stroke-width="1"></path><path id="Vector_121" fill="#000000" d="M334.84 114.138c-2.336 0.304 -4.182 0.73 -4.318 0.426 -0.136 -0.304 1.692 -1.298 4.152 -1.616 4.23 -0.548 7.3 0.266 0.166 1.19Z" stroke-width="1"></path><path id="Vector_122" fill="#000000" d="M337.924 123.6c-6.464 3.8 -9.43 -0.26 -5.578 -2.48 0.536 -0.27 0.894 -0.238 0.902 -0.164 0.008 0.074 -0.258 0.2 -0.644 0.554 -0.812 0.73 -1.586 2.158 -0.584 2.49 2.35 0.78 10.354 -3.64 7.058 -4.578 -1.918 -0.544 -4.316 0.96 -4.428 0.684a5.598 5.598 0 0 1 4.67 -1.65c1.2 0.264 1.682 0.99 1.68 1.646 0 1.468 -1.812 2.758 -3.076 3.498Z" stroke-width="1"></path><path id="Vector_123" fill="#000000" d="M343.688 124.574c1.952 0.612 0.4 3.968 0.134 3.308 -0.124 -0.09 0.348 -0.824 0 -1.924 -0.812 -1.898 -2.91 3.386 -2.504 4.614 0.232 0.47 0.506 0.544 0.868 0 0.702 -1.076 1.186 -1.8 1.334 -1.71 0.2 0.116 -0.434 2.858 -1.716 3.086 -3.446 0.346 -0.868 -7.978 1.884 -7.374Z" stroke-width="1"></path><path id="Vector_124" fill="#000000" d="M339.688 137.542a6.096 6.096 0 0 1 -5.058 -0.53c-1.112 -0.518 -1.8 -0.686 -1.82 -0.852 -0.02 -0.166 0.854 -0.292 2.104 0.05a6.342 6.342 0 0 0 4.448 0.172c3.554 -1.05 6.424 -2.314 6.576 -1.962a14.306 14.306 0 0 1 -6.25 3.122Z" stroke-width="1"></path></g><g id="Group_35"><path id="Vector_125" fill="#ffffff" d="M361.568 96.966c2.334 1.846 2.656 4.062 1.83 5.502 -0.644 1.12 -1.94 1.682 -2.816 2.632 -0.512 0.556 -0.876 1.242 -1.414 1.774a7.35 7.35 0 0 1 -7.4 1.386c-0.962 -0.54 -1.56 -1.316 -4.014 -4.03a4.036 4.036 0 0 1 -0.826 -5.62c1.16 -2.4 1.868 -2 2.8 -3.028 0.678 -0.746 0.852 -1.88 1.622 -2.534 0.988 -0.838 2.432 -0.56 3.618 -0.722 1.306 -0.18 1.758 -0.682 2.88 0.088 2.14 1.47 1.122 2.498 3.72 4.552Z" stroke-width="1"></path><path id="Vector_126" fill="#000000" d="M365.036 98.64c-0.77 -1.822 -2.496 -2.384 -3 -2.824 -0.98 -0.874 -0.8 -5.528 -7.862 -5.182 -4 0.25 -4.944 3.104 -5.858 4.144 -0.644 0.73 -1.5 0.8 -2.388 1.652a7.99 7.99 0 0 0 -0.416 8.128c1.018 1.584 2.694 1.826 2.838 2.28 0.232 0.67 0.58 1.294 1.028 1.842 2.19 2.158 6.936 2.118 9.368 1.064a5.39 5.39 0 0 0 2.96 -3.638c0.174 -0.416 2.4 -0.894 3.15 -2.5a5.782 5.782 0 0 0 0.18 -4.966Zm-2.478 2.324c-0.142 2.276 -1.86 1.42 -3.318 3.352a18 18 0 0 0 -0.88 1.906c-1.044 1.678 -5.934 1.314 -6.8 0.4 -0.282 -0.358 -0.346 -0.862 -0.788 -1.484 -1.034 -1.378 -2.272 -1.35 -2.914 -2.2a6.464 6.464 0 0 1 -0.106 -4.754c0.304 -0.386 1.6 -0.828 2.4 -1.974 1.432 -2.028 1.4 -4.5 6.6 -2.962 2.708 0.886 1.676 3 3.426 4.614 0.982 0.902 2.54 1.23 2.38 3.102Z" stroke-width="1"></path><path id="Vector_127" fill="#000000" d="M354.462 105.93c-2.116 -0.32 -2.976 -2.124 -3.828 -3.444 -0.618 -0.956 -1.2 -1.334 -1.128 -1.548 0.032 -0.21 1 -0.104 1.958 0.848 0.92 0.906 1.844 2.436 3.18 2.618 1.134 0.316 1.622 -1.828 2.88 -2.672 1.2 -0.8 2.12 -0.6 2.118 -0.428 0.044 0.224 -0.69 0.466 -1.4 1.246 -0.828 0.898 -1.392 3.74 -3.78 3.38Z" stroke-width="1"></path></g><g id="Group_36"><path id="Vector_128" fill="#ffffff" d="M335.556 209.95c17.012 -12.312 20.822 -36.082 8.512 -53.094 -12.312 -17.012 -36.082 -20.822 -53.094 -8.51 -17.012 12.31 -20.822 36.08 -8.51 53.092 12.31 17.012 36.082 20.822 53.092 8.512Z" stroke-width="1"></path><path id="Vector_129" fill="#92fcff" d="M336.2 167.8c-0.312 -1.4 -2.55 -10.316 -3.85 -10.894 -1.6 -0.714 -9.932 3.898 -11.448 4.73 -4.456 2.45 -3.2 5.528 0.184 6.062 1.31 0.2 2.218 0.634 1.574 1.786 -9.788 17.344 -9.436 17.586 -11.02 17.094 -1.05 -0.326 -3.4 -6.4 -3.73 -7.272 -1.784 -4.778 -1.144 -7.49 -4.02 -9.2 -2.266 -1.346 -5.34 0.07 -6.8 2.274a16.586 16.586 0 0 0 -2.028 6.6c-0.284 1.724 -2.778 10.05 -3.124 11.47 -2.364 9.8 1.03 10.816 3.172 7.958 5.136 -6.872 3.86 -13.856 5.564 -14.246 1.544 -0.352 1.388 2.63 8.84 13.94 1.098 1.666 2.228 2.674 4.088 1.8 2.288 -1.07 2.266 -1.906 14.938 -26.694 0.678 -1.324 1.22 -1.252 2.058 -0.824 3.62 1.844 6.756 0.532 5.602 -4.584Z" stroke-width="1"></path><path id="Vector_130" fill="#000000" d="M280.856 202.492c-20.848 -28.8 3.766 -68.6 38.766 -63a39.994 39.994 0 0 1 32.624 30.248c1.216 5.116 1.412 10.422 0.576 15.614 -5.634 35.086 -51.048 46.046 -71.966 17.138Zm32.4 -59.754a36.286 36.286 0 1 0 21.294 65.678c28.238 -20.43 13.978 -65.678 -21.286 -65.678h-0.008Z" stroke-width="1"></path><path id="Vector_131" fill="#000000" d="M330.888 157.56c1.51 0 1.2 0.324 4.46 12.854a1.442 1.442 0 0 1 -0.468 1.46 1.43 1.43 0 0 1 -1.518 0.204l-4.4 -2.02c-15.466 26.866 -14.232 35.61 -20.28 24.286 -2.26 -4.232 -4.754 -8.344 -6.95 -12.554 -2.102 -4.03 -4 11.818 -7.494 15.842 -2.612 3 -2.6 -1.348 -1.756 -4.958 0.542 -2.342 1.4 -4.588 2.014 -6.906 1.224 -4.626 2.838 -15.442 7.174 -15.288 4.152 0.146 4.18 9.908 9.768 17.618 2 2.748 7.706 -10.642 13.112 -20.06l-4.834 -2.216a1.438 1.438 0 0 1 -0.638 -2.03 1.434 1.434 0 0 1 0.572 -0.544c11.498 -6.004 10.75 -5.688 11.238 -5.688Zm0 -2.112c-1.176 0 -0.524 -0.182 -12.224 5.926a3.544 3.544 0 0 0 0.164 6.37l2.74 1.256c-3.726 6.672 -6.168 12.49 -9.27 16.6 -4.964 -7.984 -4.634 -17.17 -10.736 -17.234 -5.258 -0.054 -7.12 8.318 -8.308 13.506 -1.564 6.824 -5.012 14.766 -2.524 17.896 1.052 1.324 3.05 1.6 5.096 -0.748 2.514 -2.892 2.636 -5.772 5.384 -13.712 6.432 11.726 8.318 16.05 11.562 16.05 4.172 0 7.766 -12.082 17.06 -28.57 2.76 1.264 3.134 1.54 4.132 1.54a3.542 3.542 0 0 0 2.81 -1.38 3.54 3.54 0 0 0 0.626 -3.068l-3.072 -11.778a3.55 3.55 0 0 0 -3.44 -2.654Z" stroke-width="1"></path></g></g></svg>