<?xml version="1.0" standalone="no"?>
<!DOCTYPE svg PUBLIC "-//W3C//DTD SVG 20010904//EN"
 "http://www.w3.org/TR/2001/REC-SVG-20010904/DTD/svg10.dtd">
<svg version="1.0" xmlns="http://www.w3.org/2000/svg"
 width="300.000000pt" height="270.000000pt" viewBox="0 0 300.000000 270.000000"
 preserveAspectRatio="xMidYMid meet">
<metadata>
Created by potrace 1.10, written by Peter Selinger 2001-2011
</metadata>
<g transform="translate(0.000000,270.000000) scale(0.100000,-0.100000)"
fill="#000000" stroke="none">
<path d="M1690 2559 c0 -6 -7 -9 -15 -5 -11 4 -15 -2 -15 -24 0 -25 4 -30 23
-30 20 0 23 4 19 35 -4 33 -12 49 -12 24z"/>
<path d="M1850 2550 c-11 -20 -5 -60 8 -60 4 0 7 18 7 40 0 22 -1 40 -2 40 -1
0 -7 -9 -13 -20z"/>
<path d="M1996 2549 c-20 -19 -16 -49 8 -49 13 0 29 57 17 64 -3 2 -14 -5 -25
-15z"/>
<path d="M2200 2536 c0 -40 16 -49 23 -13 4 20 4 21 6 1 1 -17 8 -21 46 -22
39 -2 45 1 45 18 0 11 5 20 10 20 6 0 10 -9 10 -20 0 -11 4 -20 9 -20 5 0 16
-3 24 -6 19 -7 27 24 15 56 -6 18 -11 21 -17 12 -4 -7 -12 -12 -17 -11 -27 5
-44 -3 -44 -21 0 -11 -4 -20 -10 -20 -5 0 -10 9 -10 20 0 12 -7 20 -17 20 -15
0 -16 -2 -3 -10 13 -9 13 -10 0 -10 -13 0 -13 -1 0 -10 9 -6 10 -10 3 -10 -6
0 -18 8 -25 18 -7 9 -21 23 -30 31 -16 12 -18 10 -18 -23z m180 -11 c0 -18 -4
-23 -15 -19 -25 10 -19 33 13 43 1 1 2 -10 2 -24z"/>
<path d="M682 2533 c2 -20 9 -29 26 -31 19 -3 22 1 21 30 -2 30 -2 31 -6 6 -5
-35 -23 -37 -23 -3 0 14 -5 25 -11 25 -6 0 -9 -12 -7 -27z"/>
<path d="M900 2530 c0 -25 4 -30 23 -29 16 1 18 2 5 6 -10 2 -18 8 -18 13 0 5
8 11 18 13 14 4 14 5 -3 7 -20 1 -20 1 0 10 19 8 19 9 -2 9 -19 1 -23 -4 -23
-29z"/>
<path d="M1380 2530 c0 -26 3 -30 28 -29 16 1 20 3 10 6 -21 5 -24 23 -5 23 8
0 7 4 -3 10 -13 8 -13 10 1 10 9 0 21 -12 28 -27 12 -27 13 -27 27 -8 17 24
18 46 1 23 -12 -15 -14 -15 -25 3 -7 10 -23 19 -37 19 -21 0 -25 -5 -25 -30z"/>
<path d="M1880 2528 c0 -26 3 -30 11 -18 8 11 12 12 16 3 2 -7 18 -13 35 -13
25 0 29 3 26 22 -2 14 -11 24 -23 25 -20 3 -20 3 0 -6 17 -8 18 -10 3 -10 -10
-1 -18 -6 -18 -12 0 -5 -4 -8 -9 -5 -5 3 -7 15 -4 26 4 15 0 20 -16 20 -17 0
-21 -6 -21 -32z"/>
<path d="M2146 2545 c-9 -24 4 -45 28 -44 16 1 17 2 4 6 -10 2 -18 13 -18 23
0 10 8 21 18 23 13 4 12 5 -4 6 -12 0 -24 -6 -28 -14z"/>
<path d="M745 2540 c-3 -6 2 -13 11 -17 16 -6 16 -7 -2 -14 -12 -4 0 -7 31 -7
35 0 44 3 30 8 -17 7 -17 9 -2 9 22 1 22 20 1 28 -10 4 -20 0 -26 -10 -5 -10
-15 -14 -25 -10 -15 6 -14 7 3 14 16 6 16 8 2 8 -9 1 -20 -4 -23 -9z"/>
<path d="M953 2525 c0 -12 6 -21 16 -21 10 0 16 9 16 21 0 12 -6 21 -16 21
-10 0 -16 -9 -16 -21z"/>
<path d="M1001 2513 c0 -21 3 -32 6 -25 2 6 11 12 20 12 21 0 13 44 -9 48 -15
3 -18 -4 -17 -35z"/>
<path d="M1054 2535 c-8 -19 3 -35 24 -34 14 0 13 2 -3 9 -17 7 -17 9 -2 9 21
1 23 31 2 31 -9 0 -18 -7 -21 -15z"/>
<path d="M1167 2544 c-16 -17 -7 -44 16 -43 21 0 21 1 2 9 -18 8 -18 9 -2 9
10 1 17 6 15 13 -5 14 -22 21 -31 12z"/>
<path d="M1211 2523 c2 -24 2 -25 6 -5 2 12 8 22 13 22 5 0 11 -10 13 -22 4
-20 4 -19 6 5 1 21 -4 27 -19 27 -15 0 -20 -6 -19 -27z"/>
<path d="M1308 2538 c-8 -22 3 -38 25 -37 21 0 21 1 2 9 -18 8 -18 9 -2 9 10
1 17 7 15 14 -6 17 -34 21 -40 5z"/>
<path d="M1498 2541 c11 -7 10 -9 -3 -15 -19 -7 -11 -26 11 -26 8 0 14 10 14
25 0 17 -5 25 -17 25 -14 0 -15 -2 -5 -9z"/>
<path d="M1561 2528 c-1 -22 4 -28 19 -28 15 0 20 6 19 28 -2 23 -2 24 -6 5
-2 -13 -8 -23 -13 -23 -5 0 -11 10 -13 23 -4 19 -4 18 -6 -5z"/>
<path d="M1625 2541 c17 -8 18 -10 3 -10 -26 -1 -22 -31 3 -31 28 0 23 44 -6
47 -20 3 -20 3 0 -6z"/>
<path d="M1716 2534 c-4 -10 -2 -22 3 -27 14 -14 43 0 39 20 -4 24 -34 28 -42
7z"/>
<path d="M1771 2523 l1 -28 8 25 7 25 12 -25 11 -25 -3 25 c-1 14 -9 26 -19
28 -14 3 -18 -3 -17 -25z"/>
<path d="M2048 2541 c11 -7 10 -9 -3 -15 -19 -7 -11 -26 11 -26 8 0 14 10 14
25 0 17 -5 25 -17 25 -14 0 -15 -2 -5 -9z"/>
<path d="M2080 2525 c0 -14 5 -25 10 -25 6 0 10 9 10 19 0 11 6 22 13 24 6 3
2 6 -10 6 -18 1 -23 -5 -23 -24z"/>
<path d="M1554 2429 c-3 -6 -1 -15 7 -19 16 -11 -3 -15 -131 -29 -271 -30
-489 -135 -677 -327 -66 -67 -93 -88 -93 -75 0 15 -7 19 -28 19 -20 -1 -28 -6
-28 -19 0 -22 36 -21 37 1 0 9 4 6 9 -7 7 -18 2 -33 -27 -75 -56 -83 -122
-228 -150 -335 -24 -87 -27 -117 -27 -273 -1 -153 2 -186 23 -264 33 -125 86
-247 149 -341 29 -44 54 -88 55 -97 1 -9 5 -14 10 -11 5 3 31 -20 58 -50 99
-111 285 -230 444 -285 100 -34 224 -55 332 -56 91 -1 103 -3 103 -18 0 -11 8
-18 20 -18 18 0 25 10 21 32 0 4 16 10 37 13 516 86 887 482 938 1003 5 58 10
72 22 70 9 -2 18 5 20 15 4 20 -24 24 -31 5 -2 -7 -7 24 -11 70 -8 99 -28 198
-56 283 -19 56 -19 62 -5 73 18 13 11 46 -11 46 -17 0 -19 -17 -2 -22 7 -3 8
-10 3 -17 -5 -9 -21 11 -49 65 -115 219 -275 378 -492 487 -115 58 -290 107
-381 107 -36 0 -43 15 -17 35 15 11 15 12 0 12 -9 0 -16 -4 -16 -9 0 -5 -5 -6
-12 -2 -8 5 -9 2 -5 -9 3 -10 2 -17 -3 -17 -6 0 -10 11 -10 25 0 26 -14 33
-26 14z m187 -75 c393 -74 712 -358 832 -739 38 -122 49 -197 49 -335 -2 -451
-271 -844 -692 -1010 l-51 -20 -9 23 c-10 22 -10 22 -7 -3 2 -23 -4 -26 -68
-44 -102 -27 -334 -33 -446 -12 -215 40 -403 135 -556 280 l-65 61 20 23 c14
16 21 19 25 10 2 -7 8 -10 12 -6 4 4 4 12 0 18 -8 14 -85 10 -85 -4 0 -34
-128 179 -170 283 -54 132 -74 242 -74 406 0 196 29 325 112 490 61 122 135
219 145 192 3 -7 6 0 6 14 2 45 166 189 301 263 216 118 474 157 721 110z"/>
<path d="M1846 2254 c-10 -31 -16 -58 -13 -60 2 -2 12 21 22 51 9 31 15 58 13
60 -2 3 -12 -20 -22 -51z"/>
<path d="M1415 2159 c-118 -17 -293 -84 -365 -140 -14 -10 25 6 85 36 156 78
237 97 410 99 91 1 124 3 95 8 -60 9 -151 8 -225 -3z"/>
<path d="M1585 2105 c-869 -240 -848 -235 -870 -216 -11 10 -27 21 -35 25 -8
4 1 -6 20 -22 l34 -30 18 -539 c9 -296 17 -551 17 -568 1 -28 6 -32 74 -57 39
-15 283 -106 540 -203 258 -98 470 -176 471 -174 2 2 101 148 221 324 327 480
421 619 428 631 6 10 -664 886 -681 891 -4 1 -110 -27 -237 -62z m251 28 c10
-16 490 -638 601 -777 25 -33 46 -65 46 -71 0 -14 -632 -945 -641 -945 -4 0
-243 89 -532 199 l-525 198 -18 558 c-9 307 -15 560 -13 563 6 5 1036 289
1056 291 8 1 20 -7 26 -16z"/>
<path d="M1761 1989 c-20 -64 -25 -70 -44 -65 -12 4 -60 12 -107 18 -191 25
-393 -46 -534 -187 l-74 -73 -80 57 c-45 31 -81 59 -82 63 0 3 12 21 26 40
l26 33 -31 -32 c-20 -22 -36 -31 -48 -27 -14 5 -15 4 -4 -4 11 -8 8 -18 -14
-56 -15 -25 -25 -46 -22 -46 3 0 16 18 28 40 13 22 26 40 30 40 3 0 42 -26 85
-57 44 -31 80 -57 82 -58 1 -1 -13 -27 -31 -58 -62 -102 -82 -184 -82 -332 0
-147 19 -223 80 -328 l34 -58 -80 -59 c-45 -32 -86 -61 -93 -63 -6 -2 -7 -8
-3 -13 4 -5 11 -4 15 1 4 6 42 36 85 68 l77 58 68 -68 c175 -173 408 -237 647
-177 21 5 25 -2 55 -91 18 -53 30 -98 28 -100 -2 -3 -31 -11 -64 -20 -56 -14
-25 -14 42 0 28 6 33 4 42 -21 6 -16 11 -23 11 -16 1 7 -3 21 -9 31 -8 16 -3
21 36 36 25 9 43 19 41 21 -2 2 -20 -3 -40 -11 -20 -8 -38 -15 -41 -15 -6 0
-69 190 -64 195 2 2 25 13 51 24 113 49 245 166 307 274 38 66 77 185 86 265
l7 62 103 0 c101 0 104 -1 105 -22 1 -21 2 -21 6 -3 3 11 10 23 17 27 8 6 8 8
-1 8 -6 0 -14 8 -16 18 -4 16 -5 16 -6 0 -1 -16 -13 -18 -104 -18 l-103 0 -12
78 c-12 81 -31 156 -37 150 -3 -2 2 -28 10 -58 8 -30 17 -81 21 -112 l7 -58
-107 0 -106 0 -1 33 c0 17 -7 50 -15 72 -7 22 -11 29 -9 15 3 -14 8 -46 12
-72 l6 -48 -105 0 -105 0 -6 38 c-9 52 -53 115 -102 147 l-43 26 31 95 c19 56
37 94 45 94 47 0 160 -89 212 -168 16 -25 30 -41 30 -35 0 17 -54 86 -103 131
-36 32 -107 76 -144 87 -1 1 4 23 12 50 8 26 13 50 11 52 -2 3 -11 -17 -18
-44 -14 -48 -14 -48 -53 -46 -42 3 -39 -1 7 -11 l27 -6 -30 -88 c-16 -48 -31
-91 -33 -97 -7 -20 -6 -30 4 -31 6 -1 14 -2 20 -3 5 0 26 -16 46 -33 39 -35
73 -98 74 -135 0 -22 -3 -23 -105 -23 l-105 0 -85 62 c-47 34 -85 65 -85 69 0
11 52 46 92 64 18 8 27 14 20 15 -20 0 -85 -35 -106 -58 -18 -21 -18 -21 -102
40 l-84 62 22 25 c88 97 187 141 343 154 39 4 39 4 -7 5 -111 4 -238 -47 -319
-128 l-49 -49 -84 61 -85 62 32 36 c88 98 208 174 327 206 78 21 253 24 318 5
38 -11 43 -15 38 -34 -15 -53 -15 -69 0 -29 9 23 21 42 27 42 20 -1 95 -37
144 -71 95 -66 167 -145 222 -244 12 -22 19 -31 16 -20 -29 97 -180 252 -301
311 -43 21 -81 39 -83 40 -1 2 7 33 19 69 12 36 20 68 18 70 -2 3 -14 -27 -27
-66z m-662 -389 c39 -29 71 -54 71 -57 0 -3 -14 -33 -30 -68 -20 -42 -32 -84
-35 -127 l-4 -63 10 65 c5 35 23 92 40 127 l30 62 84 -60 c47 -34 85 -62 85
-64 0 -1 -7 -19 -15 -38 -8 -20 -15 -44 -14 -54 0 -10 6 0 13 23 7 23 16 46
20 52 4 7 39 -12 95 -53 l88 -64 28 -93 c16 -51 30 -88 32 -82 2 5 -8 43 -22
84 -14 40 -25 77 -25 82 0 4 46 8 101 8 l102 0 -6 -35 c-8 -50 -43 -102 -90
-136 -22 -16 -35 -29 -29 -29 7 0 31 17 54 38 43 38 77 101 78 140 0 21 3 22
105 22 l105 0 0 -28 c0 -72 -50 -188 -113 -259 -35 -40 -121 -99 -159 -108
-23 -6 -25 -1 -53 85 -16 51 -31 88 -32 83 -2 -5 10 -48 26 -96 18 -54 25 -87
18 -87 -6 0 -4 -6 5 -12 9 -7 29 -53 43 -102 21 -70 24 -90 14 -97 -7 -4 -50
-13 -96 -19 -65 -9 -102 -9 -165 0 -158 23 -274 80 -383 190 l-65 66 85 61 85
62 50 -49 c81 -79 213 -132 319 -129 22 1 9 5 -34 10 -126 16 -208 54 -283
132 l-43 44 87 63 c73 52 89 59 96 46 17 -30 94 -67 149 -71 l54 -4 -53 9
c-63 12 -99 29 -130 63 l-23 25 73 52 c40 29 78 57 83 63 17 18 -47 -24 -107
-70 -66 -50 -68 -49 -89 49 -7 29 -14 48 -16 43 -3 -10 18 -95 31 -126 5 -11
-15 -31 -75 -74 l-82 -58 -18 24 c-23 30 -49 106 -59 173 -6 43 -8 46 -9 15
-1 -43 24 -131 52 -181 11 -21 18 -40 15 -43 -25 -25 -154 -115 -162 -112 -18
6 -84 151 -101 224 -24 100 -17 261 14 353 30 88 80 173 97 166 7 -3 45 -28
83 -56z m1087 -382 c-22 -192 -128 -368 -285 -472 -60 -40 -132 -76 -151 -76
-4 0 -20 38 -34 85 -15 47 -29 91 -31 98 -3 7 15 21 44 35 62 28 153 110 188
169 30 52 63 153 63 194 l0 29 106 0 107 0 -7 -62z"/>
<path d="M2150 1591 c0 -5 5 -13 11 -17 8 -4 7 -9 -2 -15 -11 -7 -10 -9 4 -9
13 0 17 6 15 22 -3 21 -28 39 -28 19z"/>
<path d="M1949 1501 c12 -8 12 -12 2 -25 -12 -14 -10 -16 10 -16 17 0 20 3 10
9 -9 6 -10 11 -2 15 15 10 4 26 -17 26 -14 0 -15 -2 -3 -9z"/>
<path d="M1567 1388 c-14 -45 -24 -84 -22 -86 2 -2 15 33 30 78 14 46 24 85
22 87 -3 2 -16 -33 -30 -79z"/>
<path d="M1920 2077 c3 -3 41 -29 84 -57 133 -87 228 -190 307 -332 33 -61 39
-57 8 5 -60 117 -172 244 -278 316 -52 35 -132 81 -121 68z"/>
<path d="M748 1999 c-10 -5 -18 -17 -18 -24 0 -8 8 -15 18 -15 11 0 13 3 6 8
-9 5 -8 11 2 20 12 11 14 10 14 -6 0 -24 8 -32 26 -25 15 6 20 43 5 43 -5 0
-15 2 -23 5 -7 2 -21 0 -30 -6z"/>
<path d="M821 1983 c0 -25 1 -26 9 -8 7 17 9 17 9 3 1 -10 8 -18 16 -18 9 0
15 9 14 23 0 20 -1 21 -8 3 -7 -19 -8 -19 -13 2 -9 31 -28 27 -27 -5z"/>
<path d="M881 1988 c-1 -29 13 -38 23 -15 5 9 7 9 12 0 4 -10 10 -10 25 0 28
18 23 26 -16 23 -19 -2 -36 2 -39 8 -2 6 -5 -1 -5 -16z"/>
<path d="M2346 1615 c27 -83 44 -126 39 -97 -2 18 -14 52 -25 75 -11 23 -17
33 -14 22z"/>
<path d="M706 1573 c-63 -189 -61 -413 6 -590 11 -30 22 -53 24 -51 2 2 -5 27
-16 54 -62 166 -65 415 -5 585 9 23 13 44 11 46 -2 2 -11 -17 -20 -44z"/>
<path d="M2548 1298 c-7 -18 1 -38 15 -38 5 0 7 3 4 6 -3 4 -2 15 4 25 7 15 6
19 -5 19 -7 0 -16 -6 -18 -12z"/>
<path d="M2347 965 c-42 -108 -119 -220 -216 -315 -47 -46 -72 -75 -56 -63 43
30 156 150 192 203 37 55 86 151 103 203 21 66 6 48 -23 -28z"/>
<path d="M712 690 c-56 -41 -54 -49 3 -10 40 27 53 40 42 40 -2 0 -23 -14 -45
-30z"/>
<path d="M965 620 c11 -12 45 -39 75 -60 125 -85 263 -137 384 -145 l71 -4
-60 9 c-158 22 -302 81 -422 171 -37 29 -59 41 -48 29z"/>
<path d="M1791 2413 c0 -16 3 -22 6 -14 3 8 8 9 12 3 5 -9 60 -16 101 -13 13
1 13 2 0 11 -9 6 -10 10 -3 10 6 0 15 -4 18 -10 10 -17 37 -11 33 6 -4 22 -56
27 -75 8 -8 -7 -19 -14 -26 -14 -6 0 -3 6 6 13 16 11 15 12 -8 13 -17 1 -25
-3 -26 -15 0 -11 -3 -9 -9 7 -13 31 -30 28 -29 -5z"/>
<path d="M2020 2430 c-8 -5 -23 -7 -32 -4 -14 4 -18 0 -17 -18 0 -22 1 -22 9
-3 7 17 9 17 9 3 1 -12 9 -18 26 -18 20 0 24 4 23 25 -1 14 -3 25 -3 25 0 0
-7 -5 -15 -10z"/>
<path d="M1684 2421 c-11 -12 -2 -31 16 -31 11 0 20 6 20 13 0 8 4 7 10 -3 9
-13 10 -13 10 0 0 13 1 13 10 0 11 -18 23 -8 14 13 -4 12 -16 16 -41 14 -19
-1 -36 -4 -39 -6z"/>
<path d="M2052 2416 c3 -21 58 -33 58 -13 0 7 4 6 10 -3 8 -12 10 -12 11 5 0
20 0 20 9 0 8 -19 9 -19 9 2 1 19 -4 21 -39 20 -22 -1 -40 -6 -40 -12 0 -5 -5
-3 -11 5 -8 13 -10 12 -7 -4z"/>
<path d="M2164 2421 c-2 -2 -4 -10 -4 -18 0 -9 14 -13 44 -13 38 0 45 3 43 19
-1 15 -9 18 -40 17 -21 0 -41 -3 -43 -5z"/>
<path d="M150 1983 c0 -20 3 -24 9 -14 6 9 11 10 15 2 4 -6 17 -11 29 -11 18
0 19 2 7 10 -9 6 -10 10 -3 10 6 0 15 -4 18 -10 10 -16 21 -12 21 9 0 24 -53
27 -59 3 -3 -12 -5 -10 -6 6 -2 33 -31 28 -31 -5z"/>
<path d="M493 2002 c-7 -5 -28 -7 -45 -6 -18 1 -36 -3 -40 -9 -6 -9 -8 -9 -8
1 0 6 -11 12 -24 12 -13 0 -27 -6 -29 -12 -4 -10 -6 -10 -6 0 -1 14 -47 16
-56 2 -3 -5 -3 -15 1 -22 5 -8 10 -6 15 8 7 18 8 18 8 -1 1 -17 3 -17 11 -5 6
10 10 11 10 3 0 -20 30 -15 31 5 0 14 2 14 9 -3 9 -20 9 -20 10 0 1 15 3 17 8
5 9 -20 52 -25 63 -8 7 10 9 10 9 1 0 -7 11 -13 25 -13 20 0 25 5 25 25 0 28
0 28 -17 17z"/>
<path d="M532 1982 c10 -12 10 -14 1 -8 -7 4 -13 2 -13 -3 0 -6 11 -10 25 -9
34 3 34 36 0 36 -22 0 -24 -3 -13 -16z"/>
<path d="M2781 1293 c-1 -27 15 -38 34 -23 8 7 15 9 15 4 0 -5 11 -10 24 -10
29 -2 43 24 19 33 -9 4 -19 1 -21 -5 -2 -8 -9 -6 -20 5 -16 15 -17 15 -20 0
-4 -22 -19 -22 -25 1 -4 13 -5 12 -6 -5z"/>
<path d="M420 615 c-11 -13 -15 -13 -21 -3 -7 10 -9 10 -9 -2 0 -8 4 -22 10
-30 7 -12 10 -11 16 5 7 18 8 18 15 -1 6 -14 8 -11 6 14 -2 37 -1 37 -17 17z"/>
<path d="M550 614 c0 -8 -5 -12 -11 -8 -6 3 -15 0 -20 -7 -7 -12 -9 -11 -10 1
0 10 -3 8 -9 -5 -9 -20 -9 -20 -9 0 -1 17 -3 17 -11 5 -6 -10 -10 -11 -10 -2
0 6 -4 12 -9 12 -6 0 -9 -8 -8 -18 1 -14 10 -18 54 -18 51 1 53 1 53 28 0 16
-2 28 -5 28 -3 0 -5 -7 -5 -16z"/>
<path d="M590 596 c0 -26 14 -35 25 -16 5 8 11 7 21 -1 8 -6 17 -9 21 -5 3 3
0 6 -8 6 -12 0 -12 2 1 10 18 11 13 16 -27 25 -31 6 -33 5 -33 -19z"/>
<path d="M1991 179 c-5 -13 -10 -17 -10 -9 -1 16 -61 24 -61 9 0 -5 -7 -6 -15
-3 -8 4 -15 1 -15 -6 0 -6 -5 -8 -10 -5 -6 4 -8 11 -5 16 4 5 -1 9 -9 9 -9 0
-14 -8 -13 -20 1 -18 8 -20 73 -20 65 0 73 2 79 21 10 29 -3 37 -14 8z"/>
<path d="M2080 169 c0 -15 7 -19 36 -19 48 0 45 31 -3 35 -27 2 -33 -1 -33
-16z"/>
<path d="M1680 170 c-8 -5 -11 -12 -7 -17 5 -4 12 -1 17 7 7 10 10 11 10 3 0
-7 7 -13 15 -13 8 0 15 6 15 13 0 15 -30 19 -50 7z"/>
</g>
</svg>
